<svg width="121" height="61" viewBox="0 0 121 61" fill="none" xmlns="http://www.w3.org/2000/svg">
<path fill-rule="evenodd" clip-rule="evenodd" d="M47.0947 30.7167C47.0947 27.8657 49.2086 25.8756 53.0544 25.8756C55.3975 25.8756 57.3178 26.6115 58.3582 27.3325C58.6342 27.5078 58.7417 27.8528 58.613 28.1498L57.766 29.8908C57.6094 30.175 57.2109 30.1385 57.0071 30.0359C56.266 29.6666 55.0524 29.0434 53.9509 28.9281C53.677 28.8993 53.3905 28.8844 53.1003 28.8906C52.1172 28.9119 51.2971 29.2475 51.0067 29.9845C50.9482 30.131 50.9167 30.2772 50.9137 30.4225C50.8883 31.3937 52.2611 31.7441 53.9256 32.0236C57.0226 32.5453 59.3632 33.4377 59.3632 36.569C59.3632 39.2285 57.1984 41.6328 52.996 41.559C50.2172 41.504 48.2462 40.5828 47.1893 39.6854C47.1537 39.6554 46.7512 39.2523 46.9663 38.7693C47.2135 38.1459 47.6286 37.4303 47.956 37.0546C48.1381 36.8105 48.6181 36.7718 48.8666 36.9245C49.7376 37.4565 51.1587 38.3087 52.8219 38.3639L53.2077 38.3663C54.6938 38.3312 55.5929 37.7782 55.5737 36.8445C55.5573 36.0221 54.3793 35.5426 52.5174 35.1948C49.5249 34.6404 47.1181 33.6718 47.1181 30.7144L47.0947 30.7167ZM74.2984 34.773C72.1884 34.8006 70.254 35.3674 70.198 36.9883C70.198 38.2735 71.2587 38.9055 72.7496 38.823C74.1784 38.6879 75.2685 38.0785 75.7486 37.271C75.9269 36.9706 75.9524 35.8505 75.9421 35.3712C75.9396 35.271 75.7347 35.076 75.6442 35.0395C75.1959 34.8544 74.8635 34.7967 74.2981 34.7743L74.2984 34.773ZM67.2776 28.2451C68.2645 27.3777 70.2065 26.0274 73.3393 26.0987C77.4525 26.1826 79.6262 28.0787 79.8285 32.6029C79.9113 34.4728 79.7739 39.689 79.7385 40.9882C79.7549 41.0769 79.7261 41.168 79.6614 41.2318C79.6292 41.2634 79.59 41.2868 79.5469 41.3002C79.5039 41.3135 79.4583 41.3164 79.4139 41.3086L76.4517 41.3149C76.0889 41.2974 76.0468 41.121 76.0417 40.9346L76.0201 40.1611C76.0163 40.006 75.8674 40.011 75.8289 40.036C74.8637 41.0374 73.2823 41.538 71.6012 41.538C69.0465 41.538 66.4999 40.0613 66.5074 37.1364C66.5151 34.1414 68.676 32.6635 71.0497 32.3154C72.5703 32.0927 74.2842 32.2904 75.5807 32.7974C75.6634 32.8298 75.8328 32.7823 75.8353 32.6671C75.8403 32.2855 75.8225 31.5583 75.7463 31.2128C75.5552 30.3343 74.8103 29.6271 73.244 29.4357C72.9218 29.3961 72.5963 29.3876 72.2723 29.4107C71.0268 29.5069 69.5293 30.4618 68.9079 30.8186C68.7614 30.9023 68.5336 30.8411 68.4596 30.7472C68.0979 30.2869 67.1862 28.9424 67.1161 28.7272C67.0459 28.5121 67.1454 28.333 67.2728 28.2203L67.2776 28.2451ZM81.1606 33.8067C81.1352 29.629 84.0971 26.1047 88.9069 26.0722C91.9072 26.0536 94.0873 27.39 94.4719 28.0209C94.5483 28.1686 94.51 28.2924 94.4552 28.4414C94.0663 29.1866 93.6139 29.8968 93.1028 30.5641C92.9081 30.8093 92.6954 30.5991 92.4509 30.4388C91.7695 29.992 90.4732 29.4462 89.1986 29.4462C86.8861 29.4462 85.1618 31.0056 85.1822 33.8731C85.1999 36.6264 86.8377 38.137 89.2061 38.1909C90.4377 38.2209 91.6321 37.5251 92.2624 36.9557C92.4635 36.783 92.6725 36.868 92.903 37.0457C93.355 37.5 94.0032 38.201 94.3635 38.6726C94.5992 38.9405 94.4236 39.2034 94.3382 39.3086C93.3626 40.5224 91.4781 41.5424 88.9846 41.5562C83.7636 41.5937 81.1735 37.9843 81.1492 33.7917L81.1606 33.8067ZM106.07 41.3711C106.315 41.3535 108.93 40.9979 109.734 40.8178C109.933 40.7727 110.004 40.6088 109.894 40.4449L107.033 36.2272L104.314 32.8018C104.22 32.6765 104.225 32.5514 104.327 32.4513L109.301 27.5502C109.749 27.0745 109.479 26.8682 109.1 26.7566C108.364 26.5415 107.174 26.2723 106.498 26.1308C106.213 26.072 105.869 26.0933 105.606 26.3436L99.8632 31.9444C99.6721 32.132 99.5626 32.0905 99.5614 31.8216L99.438 19.8006C99.433 19.6128 99.2039 19.4714 99.0751 19.4654L96.0762 19.4591C95.8864 19.4926 95.7366 19.6362 95.6979 19.822C95.5452 22.0835 95.7617 38.6851 95.8533 41.0081C95.8556 41.1705 95.9839 41.3043 96.1488 41.316C96.8072 41.3534 98.4358 41.351 99.1974 41.3372C99.5716 41.3372 99.6177 41.0782 99.6177 41.0782L99.6737 36.6225C99.6737 36.6225 99.7119 36.4249 99.7758 36.3724L101.103 35.0055C101.179 34.9329 101.299 34.938 101.375 35.0405C101.751 35.5386 102.823 37.1582 103.816 38.6048L105.641 41.1965C105.779 41.3892 105.939 41.3968 106.061 41.393L106.07 41.3711Z" fill="black"/>
<path fill-rule="evenodd" clip-rule="evenodd" d="M61.6044 41.3696L64.3524 41.3746C64.4545 41.3809 64.5549 41.3464 64.6316 41.2787C64.6692 41.2455 64.6997 41.2051 64.7213 41.1598C64.7429 41.1146 64.7552 41.0655 64.7574 41.0154C64.9229 37.759 64.8515 22.255 64.7471 19.8082C64.7383 19.5954 64.6453 19.5166 64.4989 19.4978C63.8367 19.4102 61.9495 19.4315 61.3446 19.5855C61.233 19.6085 61.153 19.705 61.1525 19.817C61.0047 26.127 61.104 40.6751 61.136 40.9505C61.1679 41.2258 61.3141 41.3597 61.6033 41.3697L61.6044 41.3696Z" fill="black"/>
<path fill-rule="evenodd" clip-rule="evenodd" d="M16.8868 36.7002C16.8868 34.9606 18.2257 33.5602 19.8888 33.5602C21.5519 33.5602 22.8907 34.9606 22.8907 36.7002V44.4292C22.8907 46.1688 21.5519 47.5693 19.8888 47.5693C18.2257 47.5693 16.8868 46.1688 16.8868 44.4292V36.7002Z" fill="#E01E5A"/>
<path fill-rule="evenodd" clip-rule="evenodd" d="M28.0315 39.5641C26.2919 39.5641 24.8914 38.2252 24.8914 36.5621C24.8914 34.899 26.2918 33.5602 28.0315 33.5602H35.7607C37.5002 33.5602 38.9007 34.899 38.9007 36.5621C38.9007 38.2252 37.5003 39.5641 35.7607 39.5641H28.0315Z" fill="#ECB22D"/>
<path fill-rule="evenodd" clip-rule="evenodd" d="M24.8914 20.6874C24.8914 18.9478 26.2303 17.5474 27.8934 17.5474C29.5564 17.5474 30.8953 18.9478 30.8953 20.6874V28.4164C30.8953 30.156 29.5564 31.5564 27.8934 31.5564C26.2303 31.5564 24.8914 30.156 24.8914 28.4164V20.6874Z" fill="#2FB67C"/>
<path fill-rule="evenodd" clip-rule="evenodd" d="M12.0214 31.5576C10.2818 31.5576 8.88135 30.2187 8.88135 28.5557C8.88135 26.8926 10.2818 25.5537 12.0214 25.5537H19.7504C21.49 25.5537 22.8904 26.8926 22.8904 28.5557C22.8904 30.2187 21.49 31.5576 19.7504 31.5576H12.0214Z" fill="#36C5F1"/>
<path fill-rule="evenodd" clip-rule="evenodd" d="M24.8914 44.5666C24.8914 46.2297 26.2303 47.5686 27.8934 47.5686C29.5564 47.5686 30.8953 46.2297 30.8953 44.5666C30.8953 42.9036 29.5564 41.5647 27.8934 41.5647H24.8914V44.5666Z" fill="#ECB22D"/>
<path fill-rule="evenodd" clip-rule="evenodd" d="M35.8989 31.5576H32.8969V28.5557C32.8969 26.8926 34.2358 25.5537 35.8989 25.5537C37.5619 25.5537 38.9008 26.8926 38.9008 28.5557C38.9008 30.2187 37.5619 31.5576 35.8989 31.5576Z" fill="#2FB67C"/>
<path fill-rule="evenodd" clip-rule="evenodd" d="M11.8833 33.5602H14.8852V36.5621C14.8852 38.2252 13.5464 39.5641 11.8833 39.5641C10.2202 39.5641 8.88135 38.2252 8.88135 36.5621C8.88135 34.899 10.2202 33.5602 11.8833 33.5602Z" fill="#E01E5A"/>
<path fill-rule="evenodd" clip-rule="evenodd" d="M22.8907 20.5493V23.5513H19.8888C18.2257 23.5513 16.8868 22.2124 16.8868 20.5493C16.8868 18.8862 18.2257 17.5474 19.8888 17.5474C21.5519 17.5474 22.8907 18.8862 22.8907 20.5493Z" fill="#36C5F1"/>
</svg>
