<svg width="137" height="36" viewBox="0 0 137 36" fill="none" xmlns="http://www.w3.org/2000/svg">
<path d="M44.4792 14.2902C44.4792 11.8489 42.1053 9.2561 37.9973 9.2561C33.3841 9.2561 28.3164 12.6402 27.5419 19.3916C26.7506 26.2103 30.9933 29.2409 35.2698 29.2409C39.5462 29.2409 41.7854 27.5741 44.0752 25.3517C42.1053 22.8767 39.563 24.0216 39.0748 24.2741C38.536 24.5435 37.8457 24.9139 36.4315 24.9139C34.7815 24.9139 33.0979 24.1731 33.0979 21.0921C43.6711 20.0482 44.4792 16.7314 44.4792 14.2902ZM39.2431 14.6942C39.1758 15.4519 38.8727 16.7483 33.5188 17.4722C34.6468 13.4652 36.8019 13.1621 37.7952 13.1621C38.7212 13.1621 39.3105 13.8861 39.2431 14.6942ZM21.3293 15.3509C21.3293 15.3509 19.0564 22.4895 18.8712 23.0787C18.8038 22.4726 17.137 9.66018 17.137 9.66018C13.2647 9.66018 11.1938 12.4213 10.0994 15.334C10.0994 15.334 7.33826 22.4895 7.10255 23.0956C7.08572 22.54 6.68164 15.4182 6.68164 15.4182C6.44594 11.8489 3.17968 9.67701 0.536377 9.67701L3.73528 29.0893C7.79284 29.0725 9.98157 26.3282 11.1264 23.4155C11.1264 23.4155 13.5677 17.1018 13.6687 16.8156C13.6856 17.085 15.4197 29.0893 15.4197 29.0893C19.4941 29.0893 21.6828 26.5134 22.8614 23.7017L28.5689 9.67701C24.545 9.67701 22.4236 12.4213 21.3293 15.3509ZM59.4299 9.22243C56.9213 9.22243 55.002 10.5862 53.3857 12.5897V12.5729L54.8336 0.905273C51.5 0.905273 48.7894 3.80113 48.2674 8.11123L45.742 28.9378C47.6613 28.9378 49.6985 28.3822 50.7929 26.9679C51.7694 28.2307 53.2341 29.2409 55.406 29.2409C61.0294 29.2409 64.8849 22.7083 64.8849 16.5799C64.8512 10.9902 62.1406 9.22243 59.4299 9.22243ZM58.908 19.2401C58.3187 22.6578 56.4162 24.9813 54.5811 24.9813C52.7291 24.9813 51.9378 24.1563 51.9378 24.1563C52.2913 21.1594 52.5102 19.3242 53.1836 17.7416C53.8571 16.159 55.4566 13.6336 57.1233 13.6336C58.7565 13.6336 59.4973 15.8054 58.908 19.2401ZM78.9264 9.67701H75.0035L75.0204 9.47497C75.2898 6.91585 75.8959 5.56894 77.8994 5.35007C79.2631 5.21538 79.8693 4.50825 80.0208 3.73378C80.1386 3.12767 80.509 1.02313 80.509 1.02313C72.6296 0.972619 70.1547 4.37356 69.5149 9.55916L69.4981 9.67701H69.4139C68.1343 9.67701 66.7201 11.1249 66.4844 12.9601L66.4002 13.6336H69.0266L66.8211 31.8505L66.1476 35.1167C66.2318 35.1167 66.3328 35.1336 66.417 35.1336C70.1042 34.9989 72.4613 32.0862 72.9832 27.8603L74.7005 13.6336H75.9296C77.1418 13.6336 78.556 12.4213 78.8086 10.401L78.9264 9.67701ZM99.3321 9.34028C94.8031 9.34028 90.5267 12.6739 89.2134 17.91C87.9002 23.1461 89.8869 29.3419 96.5541 29.3419C103.204 29.3419 107.043 22.8935 107.043 17.5228C107.043 12.1856 103.423 9.34028 99.3321 9.34028ZM101.167 19.0717C100.932 21.4456 99.8877 25.0486 97.0255 25.0486C94.1465 25.0486 94.5505 20.8395 94.8368 18.836C95.1398 16.6978 96.3352 13.6504 98.9112 13.6504C101.218 13.6504 101.437 16.3947 101.167 19.0717ZM129.419 15.3509C129.419 15.3509 127.146 22.4895 126.961 23.0787C126.893 22.4726 125.226 9.66018 125.226 9.66018C121.354 9.66018 119.283 12.4213 118.189 15.334C118.189 15.334 115.428 22.4895 115.192 23.0956C115.175 22.54 114.771 15.4182 114.771 15.4182C114.535 11.8489 111.269 9.67701 108.626 9.67701L111.808 29.0893C115.865 29.0725 118.054 26.3282 119.199 23.4155C119.199 23.4155 121.64 17.1018 121.724 16.8156C121.741 17.085 123.475 29.0893 123.475 29.0893C127.55 29.0893 129.739 26.5134 130.917 23.7017L136.625 9.67701C132.618 9.67701 130.496 12.4213 129.419 15.3509ZM82.6304 1.02313L79.3305 27.6414L78.657 30.9245C78.7412 30.9245 78.8422 30.9413 78.9264 30.9413C82.4789 30.8908 85.0043 27.7761 85.4758 23.8532L87.3783 8.58265C87.9507 3.91898 85.1727 1.02313 82.6304 1.02313Z" fill="#4353FF"/>
</svg>
