<svg width="133" height="33" viewBox="0 0 133 33" fill="none" xmlns="http://www.w3.org/2000/svg">
<path d="M20.713 26.0574H19.1745V10.2125H20.713V26.0574Z" fill="#1570EF"/>
<path d="M16.5411 13.0697H18.0702V26.0466H16.5411V13.0697Z" fill="#1570EF"/>
<path d="M17.6224 11.5762C17.0048 11.5579 16.8594 11.0363 16.6451 10.4815C16.5869 10.6646 16.5513 10.7706 16.5195 10.878C15.9587 12.7731 14.8989 14.1646 13.1615 14.8497C11.4279 15.5336 9.64245 14.8835 8.60057 13.2092C8.46533 12.9917 8.33041 12.7734 8.20737 12.5475C8.14557 12.4341 8.11087 12.3027 8.06384 12.1794L8.17502 12.0836C8.29817 12.2501 8.44181 12.4029 8.54056 12.5853C9.28161 13.954 10.5446 14.3985 11.973 13.9715C13.5284 13.5066 14.5289 12.3147 15.1638 10.7063C14.9373 10.89 14.7134 11.0776 14.4838 11.2565C13.9423 11.6783 13.7481 11.6612 13.2723 11.1648C13.2163 11.106 13.1509 11.0571 13.064 10.9808C13.1342 10.9137 13.1872 10.8542 13.2472 10.8071C14.0741 10.1638 14.7619 9.3775 15.2529 8.39929C15.3846 8.13722 15.544 8.02909 15.7773 8.18377C16.0348 8.35446 16.3689 8.50582 16.4996 8.76801C16.8957 9.56285 17.2118 10.406 17.5526 11.2338C17.5956 11.3382 17.6001 11.4615 17.6224 11.5762Z" fill="#1570EF"/>
<path d="M8.81604 15.4575H10.3512V26.0585H8.81604V15.4575Z" fill="#1570EF"/>
<path d="M13.9466 15.4569H15.4791V26.0445H13.9466V15.4569Z" fill="#1570EF"/>
<path d="M11.3942 18.2927H12.9314V26.053H11.3942V18.2927Z" fill="#1570EF"/>
<path d="M23.232 26.0597H21.7036V18.3068H23.232V26.0597Z" fill="#1570EF"/>
<rect x="1" y="0.5" width="29" height="32" rx="3.5" stroke="#1570EF"/>
<path d="M39.0685 23L43.4365 11.8H45.3885L49.7245 23H47.5645L45.1645 16.632C45.1112 16.504 45.0365 16.3013 44.9405 16.024C44.8552 15.7467 44.7592 15.448 44.6525 15.128C44.5458 14.7973 44.4498 14.4933 44.3645 14.216C44.2792 13.928 44.2152 13.72 44.1725 13.592L44.5725 13.576C44.5085 13.7893 44.4338 14.0293 44.3485 14.296C44.2632 14.5627 44.1725 14.84 44.0765 15.128C43.9805 15.416 43.8845 15.6933 43.7885 15.96C43.7032 16.2267 43.6232 16.4667 43.5485 16.68L41.1485 23H39.0685ZM41.0525 20.44L41.7725 18.632H46.8765L47.6445 20.44H41.0525ZM54.4399 23.16C53.6505 23.16 52.9412 22.968 52.3119 22.584C51.6825 22.2 51.1865 21.6773 50.8239 21.016C50.4612 20.3547 50.2799 19.608 50.2799 18.776C50.2799 17.944 50.4612 17.1973 50.8239 16.536C51.1865 15.8747 51.6825 15.352 52.3119 14.968C52.9412 14.584 53.6505 14.392 54.4399 14.392C55.1972 14.392 55.8852 14.536 56.5039 14.824C57.1225 15.112 57.6025 15.512 57.9439 16.024L56.8559 17.336C56.6959 17.112 56.4932 16.9093 56.2479 16.728C56.0025 16.5467 55.7412 16.4027 55.4639 16.296C55.1865 16.1893 54.9092 16.136 54.6319 16.136C54.1625 16.136 53.7412 16.2533 53.3679 16.488C53.0052 16.712 52.7172 17.0267 52.5039 17.432C52.2905 17.8267 52.1839 18.2747 52.1839 18.776C52.1839 19.2773 52.2905 19.7253 52.5039 20.12C52.7279 20.5147 53.0265 20.8293 53.3999 21.064C53.7732 21.2987 54.1892 21.416 54.6479 21.416C54.9252 21.416 55.1919 21.3733 55.4479 21.288C55.7145 21.192 55.9652 21.0587 56.1999 20.888C56.4345 20.7173 56.6532 20.504 56.8559 20.248L57.9439 21.576C57.5812 22.0453 57.0799 22.4293 56.4399 22.728C55.8105 23.016 55.1439 23.16 54.4399 23.16ZM63.0649 23.16C62.2755 23.16 61.5662 22.968 60.9369 22.584C60.3075 22.2 59.8115 21.6773 59.4489 21.016C59.0862 20.3547 58.9049 19.608 58.9049 18.776C58.9049 17.944 59.0862 17.1973 59.4489 16.536C59.8115 15.8747 60.3075 15.352 60.9369 14.968C61.5662 14.584 62.2755 14.392 63.0649 14.392C63.8222 14.392 64.5102 14.536 65.1289 14.824C65.7475 15.112 66.2275 15.512 66.5689 16.024L65.4809 17.336C65.3209 17.112 65.1182 16.9093 64.8729 16.728C64.6275 16.5467 64.3662 16.4027 64.0889 16.296C63.8115 16.1893 63.5342 16.136 63.2569 16.136C62.7875 16.136 62.3662 16.2533 61.9929 16.488C61.6302 16.712 61.3422 17.0267 61.1289 17.432C60.9155 17.8267 60.8089 18.2747 60.8089 18.776C60.8089 19.2773 60.9155 19.7253 61.1289 20.12C61.3529 20.5147 61.6515 20.8293 62.0249 21.064C62.3982 21.2987 62.8142 21.416 63.2729 21.416C63.5502 21.416 63.8169 21.3733 64.0729 21.288C64.3395 21.192 64.5902 21.0587 64.8249 20.888C65.0595 20.7173 65.2782 20.504 65.4809 20.248L66.5689 21.576C66.2062 22.0453 65.7049 22.4293 65.0649 22.728C64.4355 23.016 63.7689 23.16 63.0649 23.16ZM71.9299 23.16C71.0872 23.16 70.3352 22.9733 69.6739 22.6C69.0125 22.216 68.4899 21.6933 68.1059 21.032C67.7219 20.3707 67.5299 19.6187 67.5299 18.776C67.5299 17.9333 67.7219 17.1813 68.1059 16.52C68.4899 15.8587 69.0125 15.3413 69.6739 14.968C70.3352 14.584 71.0872 14.392 71.9299 14.392C72.7619 14.392 73.5085 14.584 74.1699 14.968C74.8312 15.3413 75.3485 15.8587 75.7219 16.52C76.1059 17.1813 76.2979 17.9333 76.2979 18.776C76.2979 19.6187 76.1059 20.3707 75.7219 21.032C75.3485 21.6933 74.8312 22.216 74.1699 22.6C73.5085 22.9733 72.7619 23.16 71.9299 23.16ZM71.9299 21.416C72.3885 21.416 72.7939 21.2987 73.1459 21.064C73.5085 20.8293 73.7912 20.5147 73.9939 20.12C74.2072 19.7253 74.3085 19.2773 74.2979 18.776C74.3085 18.264 74.2072 17.8107 73.9939 17.416C73.7912 17.0213 73.5085 16.712 73.1459 16.488C72.7939 16.2533 72.3885 16.136 71.9299 16.136C71.4712 16.136 71.0552 16.2533 70.6819 16.488C70.3192 16.712 70.0365 17.0267 69.8339 17.432C69.6312 17.8267 69.5299 18.2747 69.5299 18.776C69.5299 19.2773 69.6312 19.7253 69.8339 20.12C70.0365 20.5147 70.3192 20.8293 70.6819 21.064C71.0552 21.2987 71.4712 21.416 71.9299 21.416ZM80.9863 23.16C80.3783 23.16 79.8503 23.0267 79.4023 22.76C78.9543 22.4827 78.6129 22.0933 78.3783 21.592C78.1436 21.08 78.0263 20.472 78.0263 19.768V14.568H79.9943V19.352C79.9943 19.8 80.0636 20.184 80.2023 20.504C80.3409 20.8133 80.5436 21.0533 80.8103 21.224C81.0769 21.3947 81.3969 21.48 81.7703 21.48C82.0476 21.48 82.2983 21.4373 82.5223 21.352C82.7569 21.256 82.9596 21.128 83.1303 20.968C83.3009 20.7973 83.4343 20.6 83.5303 20.376C83.6263 20.1413 83.6743 19.8907 83.6743 19.624V14.568H85.6423V23H83.7223L83.6903 21.24L84.0423 21.048C83.9143 21.4533 83.6956 21.816 83.3863 22.136C83.0876 22.4453 82.7303 22.696 82.3143 22.888C81.8983 23.0693 81.4556 23.16 80.9863 23.16ZM87.9489 23V14.568H89.8689L89.9009 16.296L89.5329 16.488C89.6395 16.104 89.8475 15.7573 90.1569 15.448C90.4662 15.128 90.8342 14.872 91.2609 14.68C91.6875 14.488 92.1249 14.392 92.5729 14.392C93.2129 14.392 93.7462 14.52 94.1729 14.776C94.6102 15.032 94.9355 15.416 95.1489 15.928C95.3729 16.44 95.4849 17.08 95.4849 17.848V23H93.5169V17.992C93.5169 17.5653 93.4582 17.2133 93.3409 16.936C93.2235 16.648 93.0422 16.44 92.7969 16.312C92.5515 16.1733 92.2529 16.1093 91.9009 16.12C91.6129 16.12 91.3462 16.168 91.1009 16.264C90.8662 16.3493 90.6582 16.4773 90.4769 16.648C90.3062 16.808 90.1675 16.9947 90.0609 17.208C89.9649 17.4213 89.9169 17.656 89.9169 17.912V23H88.9409C88.7489 23 88.5675 23 88.3969 23C88.2369 23 88.0875 23 87.9489 23ZM98.6109 23V12.424H100.579V23H98.6109ZM96.9469 16.392V14.568H102.419V16.392H96.9469ZM108.973 23V11.8H113.629C114.269 11.8 114.845 11.9547 115.357 12.264C115.879 12.5733 116.295 12.9947 116.605 13.528C116.914 14.0613 117.069 14.6587 117.069 15.32C117.069 15.992 116.914 16.6 116.605 17.144C116.295 17.6773 115.879 18.104 115.357 18.424C114.845 18.744 114.269 18.904 113.629 18.904H111.053V23H108.973ZM111.053 16.984H113.485C113.751 16.984 113.991 16.9093 114.205 16.76C114.429 16.6107 114.605 16.4133 114.733 16.168C114.871 15.9227 114.941 15.6453 114.941 15.336C114.941 15.0267 114.871 14.7547 114.733 14.52C114.605 14.2747 114.429 14.0827 114.205 13.944C113.991 13.7947 113.751 13.72 113.485 13.72H111.053V16.984ZM121.945 23.16C121.252 23.16 120.623 22.968 120.057 22.584C119.492 22.2 119.039 21.6773 118.697 21.016C118.356 20.3547 118.185 19.6027 118.185 18.76C118.185 17.9173 118.356 17.1653 118.697 16.504C119.039 15.8427 119.503 15.3253 120.089 14.952C120.676 14.5787 121.337 14.392 122.073 14.392C122.5 14.392 122.889 14.456 123.241 14.584C123.593 14.7013 123.903 14.872 124.169 15.096C124.436 15.32 124.655 15.576 124.825 15.864C125.007 16.152 125.129 16.4613 125.193 16.792L124.761 16.68V14.568H126.745V23H124.745V20.984L125.209 20.904C125.135 21.192 124.996 21.4747 124.793 21.752C124.601 22.0187 124.356 22.2587 124.057 22.472C123.769 22.6747 123.444 22.84 123.081 22.968C122.729 23.096 122.351 23.16 121.945 23.16ZM122.489 21.416C122.948 21.416 123.353 21.304 123.705 21.08C124.057 20.856 124.329 20.5467 124.521 20.152C124.724 19.7467 124.825 19.2827 124.825 18.76C124.825 18.248 124.724 17.7947 124.521 17.4C124.329 17.0053 124.057 16.696 123.705 16.472C123.353 16.248 122.948 16.136 122.489 16.136C122.031 16.136 121.625 16.248 121.273 16.472C120.932 16.696 120.665 17.0053 120.473 17.4C120.281 17.7947 120.185 18.248 120.185 18.76C120.185 19.2827 120.281 19.7467 120.473 20.152C120.665 20.5467 120.932 20.856 121.273 21.08C121.625 21.304 122.031 21.416 122.489 21.416ZM129.043 23V11.16H131.027V23H129.043Z" fill="#101828"/>
</svg>
