<svg width="129" height="61" viewBox="0 0 129 61" fill="none" xmlns="http://www.w3.org/2000/svg">
<path d="M33.8562 41.9584C33.8562 43.8918 29.0792 45.459 23.1865 45.459C17.2937 45.459 12.5167 43.8918 12.5167 41.9584C12.5167 40.0249 17.2935 38.4572 23.1865 38.4572C29.0794 38.4572 33.8562 40.0269 33.8562 41.9584Z" fill="#A0DCF2"/>
<path d="M33.8562 41.9584C33.8562 43.8918 29.0792 45.459 23.1865 45.459C17.2937 45.459 12.5167 43.8918 12.5167 41.9584C12.5167 40.0249 17.2935 38.4572 23.1865 38.4572C29.0794 38.4572 33.8562 40.0269 33.8562 41.9584Z" fill="#82BDE7"/>
<path d="M10.9989 31.6633L10.691 32.6694C10.691 32.6694 10.6108 33.033 10.9763 33.0974C11.3578 33.0905 11.3266 32.7556 11.2999 32.6471L10.9989 31.6635V31.6633Z" fill="#A0DCF2"/>
<path d="M42.0181 27.4461L42.0463 27.3153C38.9161 26.7285 35.7042 26.7226 33.7589 26.7983C34.0781 25.7201 34.1743 24.4794 34.1743 23.0958C34.1743 21.1115 33.379 19.524 32.088 18.3161C32.3138 17.6335 32.6152 16.1172 31.7871 14.1764C31.7871 14.1764 30.3246 13.7417 27.0232 15.8144C25.729 15.5111 24.3517 15.3613 22.9723 15.3613C21.4547 15.3613 19.9212 15.5425 18.491 15.9103C15.0815 13.7295 13.5766 14.1762 13.5766 14.1762C12.594 16.4812 13.2015 18.1841 13.3859 18.6078C12.2311 19.7762 11.5262 21.2673 11.5262 23.0956C11.5262 24.476 11.694 25.7141 12.1035 26.7903C10.1436 26.7236 7.04843 26.7492 4.02809 27.3149L4.05607 27.4457C7.09231 26.8764 10.2065 26.8565 12.1527 26.9257C12.2428 27.1482 12.3435 27.3628 12.4558 27.5734C10.5296 27.6317 7.24089 27.8616 4.08892 28.6953L4.1275 28.8235C7.30426 27.9836 10.6218 27.7592 12.5294 27.7048C13.6803 29.7157 15.9492 31.0148 19.9859 31.4206C19.4128 31.7814 18.8286 32.3951 18.5912 33.4335C17.8106 33.7832 15.3392 34.6381 13.8562 32.2472C13.8562 32.2472 13.0262 30.8245 11.4374 30.7132C11.4374 30.7132 9.89646 30.6933 11.3308 31.6133C11.3308 31.6133 12.3623 32.069 13.0736 33.7792C13.0736 33.7792 14.002 36.6992 18.481 35.7623V38.7787C18.481 38.7787 18.3863 39.8458 17.3428 40.2011C17.3428 40.2011 16.7265 40.6012 17.3903 40.823C17.3903 40.823 20.2824 41.0456 20.2824 38.823V35.534C20.2824 35.534 20.168 34.2295 20.8511 33.7763V39.1825C20.8511 39.1825 20.804 40.4715 20.0927 40.9605C20.0927 40.9605 19.6186 41.7603 20.6616 41.5384C20.6616 41.5384 22.6527 41.2717 22.7477 39.0937L22.793 33.6266H23.2714L23.317 39.0937C23.4117 41.2715 25.403 41.5384 25.403 41.5384C26.4458 41.7603 25.9717 40.9605 25.9717 40.9605C25.2606 40.4717 25.2133 39.1825 25.2133 39.1825V33.8267C25.8964 34.3235 25.7822 35.538 25.7822 35.538V38.827C25.7822 41.0493 28.6741 40.827 28.6741 40.827C29.3375 40.605 28.7218 40.205 28.7218 40.205C27.6785 39.8474 27.5836 38.7827 27.5836 38.7827V34.4713C27.5836 32.7903 26.8284 31.8997 26.09 31.4297C30.3926 31.0295 32.4604 29.7264 33.4125 27.7016C35.2981 27.7501 38.6915 27.9655 41.9373 28.8243L41.9759 28.6961C38.7485 27.8427 35.3778 27.6219 33.4729 27.5699C33.5632 27.3652 33.6419 27.1526 33.7118 26.934C35.6417 26.8545 38.8682 26.8575 42.0107 27.4467" fill="#292929"/>
<path d="M29.9658 23.0007C30.8931 23.7882 31.4355 24.7394 31.4355 25.7637C31.4355 30.5476 27.6314 30.6774 22.9393 30.6774C18.2473 30.6774 14.4427 30.0171 14.4427 25.7657C14.4427 24.748 14.9777 23.8029 15.8936 23.0186C17.4209 21.7115 20.0063 22.4036 22.9389 22.4036C25.8601 22.4036 28.4357 21.7046 29.9652 23.0027" fill="#F5CDB5"/>
<path d="M20.1139 26.0091C20.1139 27.3265 19.3224 28.3948 18.3462 28.3948C17.3699 28.3948 16.5781 27.3267 16.5781 26.0091C16.5781 24.6915 17.3699 23.6238 18.3462 23.6238C19.3224 23.6238 20.1139 24.6915 20.1139 26.0091Z" fill="white"/>
<path d="M19.5468 26.0384C19.5468 26.9167 19.0169 27.6284 18.3683 27.6284C17.7197 27.6284 17.1898 26.9167 17.1898 26.0384C17.1898 25.1601 17.7172 24.4475 18.3683 24.4475C19.0194 24.4475 19.5468 25.1597 19.5468 26.0384Z" fill="#B1645A"/>
<path d="M29.5977 26.0091C29.5977 27.3265 28.8063 28.3948 27.8296 28.3948C26.8529 28.3948 26.0619 27.3267 26.0619 26.0091C26.0619 24.6915 26.8536 23.6238 27.8296 23.6238C28.8057 23.6238 29.5977 24.6915 29.5977 26.0091Z" fill="white"/>
<path d="M29.0305 26.0384C29.0305 26.9167 28.5006 27.6285 27.852 27.6285C27.2034 27.6285 26.6735 26.9167 26.6735 26.0384C26.6735 25.1601 27.2034 24.4476 27.852 24.4476C28.5006 24.4476 29.0305 25.1597 29.0305 26.0384ZM23.406 28.1248C23.406 28.3538 23.2081 28.5394 22.9639 28.5394C22.7197 28.5394 22.5218 28.3538 22.5218 28.1248C22.5218 27.8959 22.7195 27.7103 22.9639 27.7103C23.2083 27.7103 23.406 27.8959 23.406 28.1248ZM21.934 29.173C21.9278 29.1565 21.9251 29.139 21.9261 29.1216C21.9271 29.1041 21.9317 29.0869 21.9398 29.0711C21.9478 29.0554 21.9591 29.0412 21.973 29.0295C21.9869 29.0178 22.0031 29.0088 22.0207 29.0029C22.0383 28.9971 22.057 28.9946 22.0756 28.9955C22.0943 28.9964 22.1125 29.0008 22.1294 29.0083C22.1462 29.0159 22.1613 29.0265 22.1738 29.0395C22.1863 29.0525 22.1959 29.0677 22.2021 29.0842C22.3158 29.3852 22.6203 29.5875 22.9603 29.5875C23.3003 29.5875 23.6046 29.3852 23.7187 29.0842C23.7249 29.0677 23.7345 29.0525 23.747 29.0395C23.7595 29.0265 23.7746 29.0159 23.7914 29.0084C23.8082 29.0009 23.8265 28.9965 23.8451 28.9956C23.8638 28.9947 23.8824 28.9972 23.9 29.003C23.9176 29.0089 23.9338 29.0179 23.9477 29.0296C23.9615 29.0413 23.9728 29.0554 23.9809 29.0712C23.9889 29.087 23.9935 29.1041 23.9945 29.1216C23.9955 29.1391 23.9928 29.1565 23.9866 29.173C23.9102 29.3707 23.7707 29.5415 23.5871 29.6623C23.4034 29.783 23.1846 29.8478 22.9603 29.8478C22.736 29.8478 22.5172 29.783 22.3336 29.6623C22.1499 29.5415 22.0104 29.3707 21.934 29.173Z" fill="#B1645A"/>
<path d="M12.1328 31.0716C12.1328 31.1822 11.9946 31.2715 11.8244 31.2715C11.6542 31.2715 11.5162 31.182 11.5162 31.0716C11.5162 30.9611 11.654 30.8713 11.8244 30.8713C11.9948 30.8713 12.1328 30.9607 12.1328 31.0716ZM12.9865 31.5157C12.9865 31.6264 12.8484 31.716 12.6782 31.716C12.508 31.716 12.37 31.6266 12.37 31.5157C12.37 31.4048 12.5077 31.3158 12.6782 31.3158C12.8486 31.3158 12.9865 31.4052 12.9865 31.5157ZM13.5084 32.0919C13.5084 32.2022 13.3706 32.2918 13.2 32.2918C13.0294 32.2918 12.892 32.2024 12.892 32.0919C12.892 31.9814 13.0298 31.8916 13.2 31.8916C13.3702 31.8916 13.5084 31.981 13.5084 32.0919ZM13.9821 32.759C13.9821 32.8697 13.8443 32.9593 13.6741 32.9593C13.5039 32.9593 13.3657 32.8699 13.3657 32.759C13.3657 32.6481 13.5035 32.5587 13.6741 32.5587C13.8447 32.5587 13.9821 32.6481 13.9821 32.759ZM14.5039 33.3835C14.5039 33.4938 14.3662 33.5834 14.1957 33.5834C14.0253 33.5834 13.8873 33.494 13.8873 33.3835C13.8873 33.273 14.0255 33.1832 14.1957 33.1832C14.3659 33.1832 14.5039 33.2726 14.5039 33.3835ZM15.2155 33.9166C15.2155 34.0273 15.0777 34.1169 14.9071 34.1169C14.7364 34.1169 14.5991 34.0275 14.5991 33.9166C14.5991 33.8058 14.7369 33.7167 14.9071 33.7167C15.0773 33.7167 15.2155 33.8062 15.2155 33.9166Z" fill="#C5E6DA"/>
<path d="M16.211 34.2713C16.211 34.3816 16.0732 34.4712 15.9028 34.4712C15.7324 34.4712 15.5944 34.3818 15.5944 34.2713C15.5944 34.1608 15.7322 34.071 15.9028 34.071C16.0734 34.071 16.211 34.1604 16.211 34.2713Z" fill="#C5E6DA"/>
<path d="M17.2023 34.2713C17.2023 34.3816 17.0645 34.4712 16.8941 34.4712C16.7237 34.4712 16.5857 34.3818 16.5857 34.2713C16.5857 34.1608 16.7235 34.071 16.8941 34.071C17.0647 34.071 17.2023 34.1604 17.2023 34.2713Z" fill="#C5E6DA"/>
<path d="M18.2081 34.1155C18.2081 34.2262 18.0703 34.3158 17.8999 34.3158C17.7295 34.3158 17.5915 34.2264 17.5915 34.1155C17.5915 34.0046 17.7293 33.9152 17.8999 33.9152C18.0705 33.9152 18.2081 34.0046 18.2081 34.1155Z" fill="#C5E6DA"/>
<path d="M54.5317 21.1569C55.7058 21.1569 57.0432 20.8837 58.5716 20.3383V23.8536C58.2322 23.9677 57.7466 24.0938 57.1158 24.2289C57.31 24.7522 57.4071 25.2415 57.4071 25.6958C57.4071 27.1518 56.9343 28.4256 55.9876 29.5183C55.0976 30.5692 53.8042 31.2516 52.3842 31.4195C51.4235 31.5556 50.9283 32.0449 50.9283 32.8865C50.9283 33.1827 51.0862 33.4869 51.4011 33.774C51.8131 34.2063 52.4204 34.4795 53.221 34.5926C56.6899 35.0929 58.4265 36.4468 58.4265 38.6532C58.4265 42.1795 56.1818 43.9426 51.7021 43.9426C49.8577 43.9426 48.3399 43.6354 47.152 43.022C45.6577 42.2485 44.8956 41.0207 44.8956 39.3697C44.8956 37.4684 46.0238 36.1506 48.2791 35.4451V35.3771C47.454 34.8998 47.041 34.1713 47.041 33.1937C47.041 31.9198 47.4295 31.1223 48.2151 30.8051V30.7371C47.438 30.4869 46.7474 29.9185 46.1401 29.031C45.4602 28.0754 45.1208 27.0517 45.1208 25.959C45.1208 24.3209 45.7398 22.957 46.978 21.8643C48.1341 20.8517 49.6655 20.3011 51.2474 20.3293C52.4092 20.3226 53.5522 20.605 54.5594 21.1479L54.5317 21.1569ZM49.0999 25.993C49.0999 27.564 49.8641 28.3475 51.3926 28.3475C52.873 28.3475 53.6127 27.551 53.6127 25.959C53.6127 25.2986 53.4419 24.7302 53.1036 24.2529C52.6916 23.7295 52.1216 23.4684 51.3926 23.4684C49.8641 23.4684 49.0999 24.3089 49.0999 25.994V25.993ZM54.7057 39.0975C54.7057 37.9367 53.6863 37.3564 51.6477 37.3564C49.6816 37.3564 48.6996 37.9588 48.6996 39.1645C48.6996 40.3473 49.767 40.9387 51.9017 40.9387C53.7696 40.9387 54.7046 40.3243 54.7046 39.0975H54.7057ZM62.6799 17.8467C61.9754 17.8467 61.3692 17.5966 60.8601 17.0962C60.3827 16.6148 60.122 15.9793 60.1321 15.3221C60.1321 14.6166 60.3744 14.0142 60.8601 13.5139C61.3692 13.0136 61.9765 12.7634 62.6799 12.7634C63.3598 12.7634 63.9415 13.0136 64.4272 13.5139C64.9363 14.0142 65.1914 14.6176 65.1914 15.3221C65.1956 15.6505 65.1302 15.9764 64.999 16.281C64.8678 16.5855 64.6734 16.8626 64.4272 17.0962C63.9415 17.5966 63.3598 17.8467 62.6799 17.8467ZM60.6049 35.6583C60.653 35.203 60.6775 34.4295 60.6775 33.3368V22.7269L60.6049 20.5084H64.7079C64.6598 20.9407 64.6353 21.6572 64.6353 22.6578V33.1346L64.7079 35.6603H60.5943L60.6049 35.6583ZM72.3352 20.5084H75.5021V23.8186C75.2712 23.8143 75.0405 23.8029 74.8104 23.7846L73.9 23.7505H72.3352V30.0977C72.3352 31.6216 72.8689 32.3841 73.9363 32.3841C74.6632 32.3913 75.375 32.1887 75.9749 31.8038V35.206C75.0783 35.6613 73.9971 35.8884 72.7355 35.8884C70.9637 35.8884 69.7383 35.288 69.0595 34.1143C68.5504 33.2267 68.2953 31.8278 68.2953 29.9175V23.8096H68.3316V23.7415L67.7851 23.7075C67.3704 23.7153 66.9567 23.7494 66.5469 23.8096V20.4994H68.3294V19.1686C68.3294 18.5312 68.2931 18.0198 68.2206 17.6326H72.443C72.3704 18.0649 72.3342 18.5532 72.3342 19.0995V20.4984L72.3352 20.5084ZM85.2492 20.4064C84.2053 20.4064 83.1145 20.7466 81.9724 21.43V15.4582L82.045 12.8985H77.8951C77.9677 13.2628 78.004 14.1153 78.004 15.4582V33.5099L77.8951 35.6593H82.1176C82.1176 35.5912 82.093 35.319 82.045 34.8387L81.9724 33.5079V25.1164C82.822 24.3659 83.6482 23.9907 84.4487 23.9907C85.3709 23.9907 86.0743 24.423 86.5599 25.2875C86.9228 25.97 87.1064 26.8235 87.1064 27.8472L87.0701 32.4542C87.0701 33.2277 87.0093 34.2954 86.8887 35.6623H91.2926C91.1858 35.0939 91.1474 34.0472 91.1474 32.5232V27.8482C91.1474 25.8689 90.6746 24.1858 89.7278 22.7979C88.6605 21.1969 87.1662 20.4094 85.2503 20.4094L85.2492 20.4064ZM99.2369 35.7964C97.32 35.7964 95.9004 34.9998 94.9675 33.4078C94.2396 32.111 93.8756 30.4059 93.8756 28.3245V23.6495L93.7304 20.5104H98.0981C98.0255 21.0108 97.9764 22.0815 97.9529 23.7185L97.9166 28.3255C97.9166 29.6224 98.0746 30.555 98.3894 31.1233C98.7523 31.8288 99.4205 32.181 100.392 32.181C101.072 32.181 101.836 31.8058 102.684 31.0553V22.6498C102.681 22.2054 102.657 21.7614 102.612 21.319L102.539 20.5004H106.762C106.714 20.8877 106.689 21.6042 106.689 22.6498V33.1016L106.762 35.6613H102.813V34.4225C101.696 35.323 100.507 35.7873 99.2455 35.7873L99.2369 35.7964ZM117.145 35.7533C116.529 35.7663 115.917 35.654 115.352 35.4243C114.786 35.1946 114.281 34.8528 113.869 34.4225V35.6513H110.011C110.083 35.264 110.12 34.5475 110.12 33.5019V15.4602L110.011 12.9005H114.161C114.112 13.3008 114.088 14.1633 114.088 15.4602V21.398C115.205 20.7376 116.298 20.3974 117.365 20.3974C119.282 20.3974 120.787 21.1939 121.88 22.7859C122.802 24.1738 123.263 25.8579 123.263 27.8362C123.263 29.8605 122.778 31.6236 121.807 33.1256C120.633 34.8768 119.09 35.7533 117.148 35.7533H117.145ZM116.602 23.9807C115.801 23.9807 114.963 24.3559 114.09 25.1064V31.0203C114.867 31.7257 115.632 32.0779 116.383 32.0779C117.33 32.0779 118.045 31.5776 118.53 30.611C118.919 29.8375 119.113 28.9159 119.113 27.8472C119.113 25.2755 118.276 23.9917 116.602 23.9917" fill="black"/>
</svg>
