<svg width="100" height="100" viewBox="0 0 100 100" fill="none" xmlns="http://www.w3.org/2000/svg">
<path d="M67.3762 78.9616H62.2478V30.9468H67.3762V78.9616Z" fill="#1570EF"/>
<path d="M53.4706 39.6052H58.5677V78.9291H53.4706V39.6052Z" fill="#1570EF"/>
<path d="M57.0757 35.0791C55.0172 35.0239 54.5324 33.443 53.8181 31.7618C53.624 32.3167 53.5053 32.638 53.3994 32.9635C51.53 38.7062 47.9974 42.9229 42.2061 44.999C36.4272 47.0713 30.4759 45.1012 27.003 40.0276C26.5521 39.3686 26.1024 38.7069 25.6923 38.0225C25.4863 37.6788 25.3706 37.2806 25.2139 36.907L25.5844 36.6166C25.995 37.1212 26.4738 37.5843 26.8029 38.137C29.2731 42.2847 33.4831 43.6316 38.2443 42.3377C43.4291 40.9289 46.764 37.3171 48.8803 32.4432C48.1254 32.9997 47.379 33.5684 46.6136 34.1103C44.8088 35.3885 44.1613 35.3366 42.5752 33.8326C42.3886 33.6542 42.1707 33.5061 41.8811 33.2751C42.1151 33.0717 42.2916 32.8914 42.4916 32.7485C45.2481 30.7993 47.5406 28.4165 49.1774 25.4522C49.6163 24.658 50.1477 24.3303 50.9255 24.7991C51.7838 25.3163 52.8974 25.775 53.3329 26.5695C54.6533 28.9781 55.7072 31.533 56.8432 34.0416C56.9865 34.3581 57.0014 34.7316 57.0757 35.0791Z" fill="#1570EF"/>
<path d="M27.7203 46.8407H32.8375V78.9649H27.7203V46.8407Z" fill="#1570EF"/>
<path d="M44.8234 46.8389H49.9316V78.9224H44.8234V46.8389Z" fill="#1570EF"/>
<path d="M36.3142 55.4324H41.4382V78.9485H36.3142V55.4324Z" fill="#1570EF"/>
<path d="M75.7735 78.969H70.679V55.4753H75.7735V78.969Z" fill="#1570EF"/>
</svg>
