<svg width="90" height="90" viewBox="0 0 90 90" fill="none" xmlns="http://www.w3.org/2000/svg">
<path d="M45 3.33334C55.422 14.7431 61.3448 29.5502 61.6667 45C61.3448 60.4499 55.422 75.2569 45 86.6667M45 3.33334C34.578 14.7431 28.6552 29.5502 28.3334 45C28.6552 60.4499 34.578 75.2569 45 86.6667M45 3.33334C21.9882 3.33334 3.33337 21.9881 3.33337 45C3.33337 68.0119 21.9882 86.6667 45 86.6667M45 3.33334C68.0119 3.33334 86.6667 21.9881 86.6667 45C86.6667 68.0119 68.0119 86.6667 45 86.6667M5.41679 32.5H84.5835M5.41671 57.5H84.5834" stroke="#1570EF" stroke-width="5" stroke-linecap="round" stroke-linejoin="round"/>
</svg>
