<svg width="100" height="100" viewBox="0 0 100 100" fill="none" xmlns="http://www.w3.org/2000/svg">
<path d="M41.6666 58.5438L39.881 60.2935L41.6666 58.5438ZM78.8689 24.6664C79.8353 23.6802 79.8192 22.0974 78.833 21.131C77.8468 20.1647 76.264 20.1808 75.2977 21.1669L78.8689 24.6664ZM66.8245 33.3859L68.5922 35.1537C68.5982 35.1477 68.6042 35.1417 68.6101 35.1357L66.8245 33.3859ZM81.6181 41.3511C82.5944 42.3274 84.1774 42.3274 85.1537 41.3511C86.13 40.3748 86.13 38.7919 85.1537 37.8156L81.6181 41.3511ZM69.1181 47.6011C70.0944 48.5774 71.6774 48.5774 72.6537 47.6011C73.63 46.6248 73.63 45.0419 72.6537 44.0656L69.1181 47.6011ZM43.3333 68.75C43.3333 75.4234 37.9234 80.8333 31.25 80.8333V85.8333C40.6848 85.8333 48.3333 78.1849 48.3333 68.75H43.3333ZM31.25 80.8333C24.5765 80.8333 19.1666 75.4234 19.1666 68.75H14.1666C14.1666 78.1849 21.8151 85.8333 31.25 85.8333V80.8333ZM19.1666 68.75C19.1666 62.0766 24.5765 56.6667 31.25 56.6667V51.6667C21.8151 51.6667 14.1666 59.3151 14.1666 68.75H19.1666ZM31.25 56.6667C34.6315 56.6667 37.685 58.0525 39.881 60.2935L43.4522 56.794C40.3545 53.6328 36.0296 51.6667 31.25 51.6667V56.6667ZM39.881 60.2935C42.0191 62.4755 43.3333 65.4568 43.3333 68.75H48.3333C48.3333 64.0961 46.469 59.8727 43.4522 56.794L39.881 60.2935ZM64.3993 39.3467L68.5922 35.1537L65.0567 31.6182L60.8637 35.8111L64.3993 39.3467ZM68.6101 35.1357L73.7395 29.901L70.1683 26.4016L65.0388 31.6362L68.6101 35.1357ZM73.7395 29.901L78.8689 24.6664L75.2977 21.1669L70.1683 26.4016L73.7395 29.901ZM70.1861 29.9191L81.6181 41.3511L85.1537 37.8156L73.7216 26.3835L70.1861 29.9191ZM60.8637 39.3467L69.1181 47.6011L72.6537 44.0656L64.3993 35.8111L60.8637 39.3467ZM43.4344 60.3115L64.3993 39.3467L60.8637 35.8111L39.8989 56.776L43.4344 60.3115Z" fill="#1570EF"/>
</svg>
