<svg width="100" height="96" viewBox="0 0 100 96" fill="none" xmlns="http://www.w3.org/2000/svg">
<path d="M67.3762 76.9616H62.2478V28.9468H67.3762V76.9616Z" fill="#1570EF"/>
<path d="M53.4707 37.6052H58.5678V76.9291H53.4707V37.6052Z" fill="#1570EF"/>
<path d="M57.0757 33.0791C55.0172 33.0239 54.5324 31.443 53.8181 29.7618C53.624 30.3167 53.5053 30.638 53.3994 30.9635C51.53 36.7062 47.9974 40.9229 42.2061 42.999C36.4272 45.0713 30.4759 43.1012 27.003 38.0276C26.5521 37.3686 26.1024 36.7069 25.6923 36.0225C25.4863 35.6788 25.3706 35.2806 25.2139 34.907L25.5844 34.6166C25.995 35.1212 26.4738 35.5843 26.8029 36.137C29.2731 40.2847 33.4831 41.6316 38.2443 40.3377C43.4291 38.9289 46.764 35.3171 48.8803 30.4432C48.1254 30.9997 47.379 31.5684 46.6136 32.1103C44.8088 33.3885 44.1613 33.3366 42.5752 31.8326C42.3886 31.6542 42.1707 31.5061 41.8811 31.2751C42.1151 31.0717 42.2916 30.8914 42.4916 30.7485C45.2481 28.7993 47.5406 26.4165 49.1774 23.4522C49.6163 22.658 50.1477 22.3303 50.9255 22.7991C51.7838 23.3163 52.8974 23.775 53.3329 24.5695C54.6533 26.9781 55.7072 29.533 56.8432 32.0416C56.9865 32.3581 57.0014 32.7316 57.0757 33.0791Z" fill="#1570EF"/>
<path d="M27.7202 44.8407H32.8375V76.9649H27.7202V44.8407Z" fill="#1570EF"/>
<path d="M44.8234 44.8389H49.9316V76.9224H44.8234V44.8389Z" fill="#1570EF"/>
<path d="M36.3142 53.4324H41.4382V76.9485H36.3142V53.4324Z" fill="#1570EF"/>
<path d="M75.7736 76.969H70.6791V53.4753H75.7736V76.969Z" fill="#1570EF"/>
</svg>
