<svg width="100" height="100" viewBox="0 0 100 100" fill="none" xmlns="http://www.w3.org/2000/svg">
<path d="M67.3761 78.9615H62.2477V30.9468H67.3761V78.9615Z" fill="#F9FAFB"/>
<path d="M53.4706 39.6052H58.5677V78.9291H53.4706V39.6052Z" fill="#F9FAFB"/>
<path d="M57.0756 35.0791C55.017 35.0239 54.5323 33.4431 53.818 31.7618C53.6239 32.3168 53.5052 32.6381 53.3992 32.9635C51.5299 38.7062 47.9972 42.9229 42.206 44.999C36.4271 47.0714 30.4758 45.1013 27.0028 40.0277C26.552 39.3686 26.1023 38.707 25.6922 38.0225C25.4862 37.6788 25.3705 37.2806 25.2137 36.907L25.5843 36.6167C25.9948 37.1213 26.4736 37.5844 26.8028 38.1371C29.273 42.2848 33.483 43.6316 38.2442 42.3378C43.429 40.929 46.7638 37.3172 48.8802 32.4433C48.1253 32.9997 47.3789 33.5684 46.6134 34.1103C44.8087 35.3885 44.1612 35.3366 42.5751 33.8327C42.3885 33.6543 42.1706 33.5061 41.881 33.2751C42.115 33.0717 42.2915 32.8915 42.4915 32.7485C45.2479 30.7993 47.5405 28.4165 49.1773 25.4522C49.6162 24.6581 50.1476 24.3304 50.9253 24.7991C51.7837 25.3164 52.8973 25.775 53.3328 26.5696C54.6532 28.9782 55.7071 31.533 56.8431 34.0417C56.9864 34.3581 57.0013 34.7317 57.0756 35.0791Z" fill="#F9FAFB"/>
<path d="M27.7202 46.8407H32.8375V78.9649H27.7202V46.8407Z" fill="#F9FAFB"/>
<path d="M44.8234 46.8389H49.9316V78.9224H44.8234V46.8389Z" fill="#F9FAFB"/>
<path d="M36.3141 55.4324H41.438V78.9485H36.3141V55.4324Z" fill="#F9FAFB"/>
<path d="M75.7734 78.969H70.679V55.4753H75.7734V78.969Z" fill="#F9FAFB"/>
</svg>
