<svg width="80" height="64" viewBox="0 0 80 64" fill="none" xmlns="http://www.w3.org/2000/svg">
<path d="M0 61.1666C0 62.5474 1.11929 63.6666 2.5 63.6666C3.88071 63.6666 5 62.5474 5 61.1666H0ZM50 61.1666C50 62.5474 51.1193 63.6666 52.5 63.6666C53.8807 63.6666 55 62.5474 55 61.1666H50ZM52.5 25.3333C51.1193 25.3333 50 26.4526 50 27.8333C50 29.214 51.1193 30.3333 52.5 30.3333V25.3333ZM52.5 0.333313C51.1193 0.333313 50 1.4526 50 2.83331C50 4.21402 51.1193 5.33331 52.5 5.33331V0.333313ZM75 61.1666C75 62.5474 76.1193 63.6666 77.5 63.6666C78.8807 63.6666 80 62.5474 80 61.1666H75ZM58.75 37.8333C57.3693 37.8333 56.25 38.9526 56.25 40.3333C56.25 41.714 57.3693 42.8333 58.75 42.8333V37.8333ZM5 61.1666V57H0V61.1666H5ZM19.1667 42.8333H35.8333V37.8333H19.1667V42.8333ZM50 57V61.1666H55V57H50ZM37.5 15.3333C37.5 20.8562 33.0228 25.3333 27.5 25.3333V30.3333C35.7843 30.3333 42.5 23.6176 42.5 15.3333H37.5ZM27.5 25.3333C21.9772 25.3333 17.5 20.8562 17.5 15.3333H12.5C12.5 23.6176 19.2157 30.3333 27.5 30.3333V25.3333ZM17.5 15.3333C17.5 9.81047 21.9772 5.33331 27.5 5.33331V0.333313C19.2157 0.333313 12.5 7.04904 12.5 15.3333H17.5ZM27.5 5.33331C33.0228 5.33331 37.5 9.81047 37.5 15.3333H42.5C42.5 7.04904 35.7843 0.333313 27.5 0.333313V5.33331ZM62.5 15.3333C62.5 20.8562 58.0228 25.3333 52.5 25.3333V30.3333C60.7843 30.3333 67.5 23.6176 67.5 15.3333H62.5ZM52.5 5.33331C58.0228 5.33331 62.5 9.81047 62.5 15.3333H67.5C67.5 7.04904 60.7843 0.333313 52.5 0.333313V5.33331ZM75 57V61.1666H80V57H75ZM58.75 42.8333H60.8333V37.8333H58.75V42.8333ZM80 57C80 46.4145 71.4188 37.8333 60.8333 37.8333V42.8333C68.6574 42.8333 75 49.1759 75 57H80ZM35.8333 42.8333C43.6574 42.8333 50 49.1759 50 57H55C55 46.4145 46.4188 37.8333 35.8333 37.8333V42.8333ZM5 57C5 49.1759 11.3426 42.8333 19.1667 42.8333V37.8333C8.58121 37.8333 0 46.4145 0 57H5Z" fill="#1570EF"/>
</svg>
