<svg width="64" height="80" viewBox="0 0 64 80" fill="none" xmlns="http://www.w3.org/2000/svg">
<path d="M34.5 48.3333C34.5 46.9526 33.3808 45.8333 32 45.8333C30.6193 45.8333 29.5 46.9526 29.5 48.3333H34.5ZM29.5 60.8333C29.5 62.214 30.6193 63.3333 32 63.3333C33.3808 63.3333 34.5 62.214 34.5 60.8333H29.5ZM27.8334 5H36.1667V0H27.8334V5ZM46.1667 15V27.5H51.1667V15H46.1667ZM48.6667 25H15.3334V30H48.6667V25ZM17.8334 27.5V15H12.8334V27.5H17.8334ZM58.6667 40V65H63.6667V40H58.6667ZM48.6667 75H15.3334V80H48.6667V75ZM5.33337 65V40H0.333374V65H5.33337ZM15.3334 75C9.81053 75 5.33337 70.5228 5.33337 65H0.333374C0.333374 73.2843 7.0491 80 15.3334 80V75ZM58.6667 65C58.6667 70.5228 54.1896 75 48.6667 75V80C56.951 80 63.6667 73.2843 63.6667 65H58.6667ZM48.6667 30C54.1896 30 58.6667 34.4772 58.6667 40H63.6667C63.6667 31.7157 56.951 25 48.6667 25V30ZM15.3334 25C7.0491 25 0.333374 31.7157 0.333374 40H5.33337C5.33337 34.4772 9.81053 30 15.3334 30V25ZM33.6667 48.3333C33.6667 49.2538 32.9205 50 32 50V55C35.6819 55 38.6667 52.0152 38.6667 48.3333H33.6667ZM32 50C31.0796 50 30.3334 49.2538 30.3334 48.3333H25.3334C25.3334 52.0152 28.3181 55 32 55V50ZM30.3334 48.3333C30.3334 47.4129 31.0796 46.6667 32 46.6667V41.6667C28.3181 41.6667 25.3334 44.6514 25.3334 48.3333H30.3334ZM32 46.6667C32.9205 46.6667 33.6667 47.4129 33.6667 48.3333H38.6667C38.6667 44.6514 35.6819 41.6667 32 41.6667V46.6667ZM29.5 48.3333V60.8333H34.5V48.3333H29.5ZM36.1667 5C41.6896 5 46.1667 9.47715 46.1667 15H51.1667C51.1667 6.71573 44.451 0 36.1667 0V5ZM27.8334 0C19.5491 0 12.8334 6.71573 12.8334 15H17.8334C17.8334 9.47715 22.3105 5 27.8334 5V0Z" fill="#1570EF"/>
</svg>
