<svg width="22" height="18" viewBox="0 0 22 18" fill="none" xmlns="http://www.w3.org/2000/svg">
<path d="M21.1621 2.65605C20.3986 2.99374 19.589 3.21552 18.7601 3.31405C19.6338 2.79148 20.2878 1.96906 20.6001 1.00005C19.7801 1.48805 18.8811 1.83005 17.9441 2.01505C17.3147 1.34163 16.4804 0.895012 15.571 0.744633C14.6616 0.594255 13.728 0.74854 12.9153 1.1835C12.1026 1.61846 11.4564 2.30973 11.0772 3.14984C10.6979 3.98995 10.6068 4.93183 10.8181 5.82905C9.15516 5.7457 7.52838 5.31357 6.04334 4.56071C4.55829 3.80785 3.24818 2.7511 2.19805 1.45905C1.82634 2.0975 1.63101 2.82328 1.63205 3.56205C1.63205 5.01205 2.37005 6.29305 3.49205 7.04305C2.82806 7.02215 2.17869 6.84283 1.59805 6.52005V6.57205C1.59825 7.53775 1.93242 8.47366 2.5439 9.22111C3.15538 9.96855 4.00653 10.4815 4.95305 10.673C4.33667 10.8401 3.69036 10.8647 3.06305 10.745C3.32992 11.5763 3.85006 12.3032 4.55064 12.8242C5.25123 13.3451 6.09718 13.6338 6.97005 13.65C6.10253 14.3314 5.10923 14.835 4.04693 15.1322C2.98464 15.4294 1.87418 15.5143 0.779053 15.382C2.69075 16.6115 4.91615 17.2642 7.18905 17.262C14.8821 17.262 19.0891 10.889 19.0891 5.36205C19.0891 5.18205 19.0841 5.00005 19.0761 4.82205C19.8949 4.23022 20.6017 3.49707 21.1631 2.65705L21.1621 2.65605Z" fill="#F9FAFB"/>
</svg>
