<svg width="25" height="24" viewBox="0 0 25 24" fill="none" xmlns="http://www.w3.org/2000/svg">
<path d="M15.2578 17H20.2578L18.8529 15.5951C18.4719 15.2141 18.2578 14.6973 18.2578 14.1585V11C18.2578 8.38757 16.5882 6.16509 14.2578 5.34142V5C14.2578 3.89543 13.3624 3 12.2578 3C11.1532 3 10.2578 3.89543 10.2578 5V5.34142C7.92743 6.16509 6.25781 8.38757 6.25781 11V14.1585C6.25781 14.6973 6.04376 15.2141 5.66274 15.5951L4.25781 17H9.25781M15.2578 17V18C15.2578 19.6569 13.9147 21 12.2578 21C10.601 21 9.25781 19.6569 9.25781 18V17M15.2578 17H9.25781" stroke="#ACACAC" stroke-width="2" stroke-linecap="round" stroke-linejoin="round"/>
</svg>
