<svg width="240" height="127" viewBox="0 0 240 127" fill="none" xmlns="http://www.w3.org/2000/svg">
<path d="M3.19156 117V95.84H8.67156L8.87156 102.64L7.91156 101.24C8.23156 100.147 8.75156 99.16 9.47156 98.28C10.1916 97.3733 11.0316 96.6667 11.9916 96.16C12.9782 95.6533 14.0049 95.4 15.0716 95.4C15.5249 95.4 15.9649 95.44 16.3916 95.52C16.8182 95.6 17.1782 95.6933 17.4716 95.8L15.9516 102.04C15.6316 101.88 15.2449 101.747 14.7916 101.64C14.3382 101.507 13.8716 101.44 13.3916 101.44C12.7516 101.44 12.1516 101.56 11.5916 101.8C11.0582 102.013 10.5916 102.333 10.1916 102.76C9.79156 103.16 9.47156 103.64 9.23156 104.2C9.01823 104.76 8.91156 105.373 8.91156 106.04V117H3.19156ZM29.8722 117.4C27.5789 117.4 25.5789 116.933 23.8722 116C22.1655 115.067 20.8322 113.787 19.8722 112.16C18.9122 110.533 18.4322 108.667 18.4322 106.56C18.4322 104.933 18.6989 103.44 19.2322 102.08C19.7655 100.72 20.5122 99.5467 21.4722 98.56C22.4322 97.5467 23.5655 96.7733 24.8722 96.24C26.2055 95.68 27.6455 95.4 29.1922 95.4C30.6322 95.4 31.9655 95.6667 33.1922 96.2C34.4189 96.7067 35.4722 97.44 36.3522 98.4C37.2589 99.3333 37.9522 100.44 38.4322 101.72C38.9122 103 39.1255 104.4 39.0722 105.92L39.0322 107.68H22.0322L21.1122 104.2H34.3522L33.7122 104.92V104.04C33.6589 103.32 33.4189 102.667 32.9922 102.08C32.5922 101.493 32.0722 101.04 31.4322 100.72C30.7922 100.4 30.0722 100.24 29.2722 100.24C28.0989 100.24 27.0989 100.467 26.2722 100.92C25.4722 101.373 24.8589 102.04 24.4322 102.92C24.0055 103.8 23.7922 104.867 23.7922 106.12C23.7922 107.4 24.0589 108.507 24.5922 109.44C25.1522 110.373 25.9255 111.107 26.9122 111.64C27.9255 112.147 29.1122 112.4 30.4722 112.4C31.4055 112.4 32.2589 112.253 33.0322 111.96C33.8055 111.667 34.6322 111.16 35.5122 110.44L38.2322 114.24C37.4589 114.933 36.6055 115.52 35.6722 116C34.7389 116.453 33.7789 116.8 32.7922 117.04C31.8055 117.28 30.8322 117.4 29.8722 117.4ZM52.4697 117.4C50.443 117.4 48.6297 116.92 47.0297 115.96C45.4297 115 44.163 113.693 43.2297 112.04C42.323 110.387 41.8697 108.507 41.8697 106.4C41.8697 104.32 42.323 102.453 43.2297 100.8C44.163 99.12 45.4297 97.8 47.0297 96.84C48.6297 95.88 50.443 95.4 52.4697 95.4C54.363 95.4 56.0964 95.7467 57.6697 96.44C59.243 97.1333 60.4697 98.0933 61.3497 99.32L58.2297 103.08C57.8564 102.573 57.3897 102.12 56.8297 101.72C56.2697 101.293 55.6564 100.96 54.9897 100.72C54.3497 100.48 53.683 100.36 52.9897 100.36C51.8964 100.36 50.923 100.627 50.0697 101.16C49.243 101.667 48.5897 102.373 48.1097 103.28C47.6297 104.187 47.3897 105.227 47.3897 106.4C47.3897 107.547 47.6297 108.573 48.1097 109.48C48.6164 110.36 49.2964 111.08 50.1497 111.64C51.003 112.173 51.963 112.44 53.0297 112.44C53.723 112.44 54.3764 112.347 54.9897 112.16C55.603 111.947 56.1764 111.64 56.7097 111.24C57.2697 110.84 57.7764 110.36 58.2297 109.8L61.3097 113.56C60.403 114.707 59.1497 115.64 57.5497 116.36C55.9497 117.053 54.2564 117.4 52.4697 117.4ZM74.7894 117.4C72.6294 117.4 70.696 116.933 68.9894 116C67.3094 115.04 65.976 113.733 64.9894 112.08C64.0294 110.427 63.5494 108.533 63.5494 106.4C63.5494 104.267 64.0294 102.387 64.9894 100.76C65.976 99.1067 67.3094 97.8 68.9894 96.84C70.696 95.88 72.6294 95.4 74.7894 95.4C76.9227 95.4 78.8294 95.88 80.5094 96.84C82.216 97.8 83.5494 99.1067 84.5094 100.76C85.4694 102.387 85.9494 104.267 85.9494 106.4C85.9494 108.533 85.4694 110.427 84.5094 112.08C83.5494 113.733 82.216 115.04 80.5094 116C78.8294 116.933 76.9227 117.4 74.7894 117.4ZM74.7894 112.44C75.8294 112.44 76.7627 112.187 77.5894 111.68C78.416 111.147 79.056 110.427 79.5094 109.52C79.9894 108.587 80.2294 107.547 80.2294 106.4C80.2294 105.227 79.9894 104.187 79.5094 103.28C79.056 102.347 78.416 101.627 77.5894 101.12C76.7627 100.587 75.8294 100.32 74.7894 100.32C73.7227 100.32 72.776 100.587 71.9494 101.12C71.1227 101.653 70.4694 102.373 69.9894 103.28C69.5094 104.187 69.2827 105.227 69.3094 106.4C69.2827 107.547 69.5094 108.587 69.9894 109.52C70.4694 110.427 71.1227 111.147 71.9494 111.68C72.776 112.187 73.7227 112.44 74.7894 112.44ZM90.2228 117V95.84H95.6628L95.8228 100.16L94.7028 100.64C94.9961 99.68 95.5161 98.8133 96.2628 98.04C97.0361 97.24 97.9561 96.6 99.0228 96.12C100.089 95.64 101.209 95.4 102.383 95.4C103.983 95.4 105.316 95.72 106.383 96.36C107.476 97 108.289 97.9733 108.823 99.28C109.383 100.56 109.663 102.147 109.663 104.04V117H103.983V104.48C103.983 103.52 103.849 102.72 103.583 102.08C103.316 101.44 102.903 100.973 102.343 100.68C101.809 100.36 101.143 100.227 100.343 100.28C99.7028 100.28 99.1028 100.387 98.5428 100.6C98.0095 100.787 97.5428 101.067 97.1428 101.44C96.7695 101.813 96.4628 102.24 96.2228 102.72C96.0095 103.2 95.9028 103.72 95.9028 104.28V117H93.1028C92.4895 117 91.9428 117 91.4628 117C90.9828 117 90.5695 117 90.2228 117ZM124.306 117.4C122.279 117.4 120.466 116.92 118.866 115.96C117.266 115 115.999 113.693 115.066 112.04C114.159 110.387 113.706 108.507 113.706 106.4C113.706 104.32 114.159 102.453 115.066 100.8C115.999 99.12 117.266 97.8 118.866 96.84C120.466 95.88 122.279 95.4 124.306 95.4C126.199 95.4 127.932 95.7467 129.506 96.44C131.079 97.1333 132.306 98.0933 133.186 99.32L130.066 103.08C129.692 102.573 129.226 102.12 128.666 101.72C128.106 101.293 127.492 100.96 126.826 100.72C126.186 100.48 125.519 100.36 124.826 100.36C123.732 100.36 122.759 100.627 121.906 101.16C121.079 101.667 120.426 102.373 119.946 103.28C119.466 104.187 119.226 105.227 119.226 106.4C119.226 107.547 119.466 108.573 119.946 109.48C120.452 110.36 121.132 111.08 121.986 111.64C122.839 112.173 123.799 112.44 124.866 112.44C125.559 112.44 126.212 112.347 126.826 112.16C127.439 111.947 128.012 111.64 128.546 111.24C129.106 110.84 129.612 110.36 130.066 109.8L133.146 113.56C132.239 114.707 130.986 115.64 129.386 116.36C127.786 117.053 126.092 117.4 124.306 117.4ZM137.265 117V95.84H142.945V117H137.265ZM140.065 91.48C138.972 91.48 138.119 91.2133 137.505 90.68C136.892 90.1467 136.585 89.3867 136.585 88.4C136.585 87.4933 136.892 86.76 137.505 86.2C138.145 85.6133 138.999 85.32 140.065 85.32C141.159 85.32 142.012 85.6 142.625 86.16C143.239 86.6933 143.545 87.44 143.545 88.4C143.545 89.3333 143.225 90.08 142.585 90.64C141.972 91.2 141.132 91.48 140.065 91.48ZM149.052 117V87.4H154.732V117H149.052ZM170.146 117.4C167.852 117.4 165.852 116.933 164.146 116C162.439 115.067 161.106 113.787 160.146 112.16C159.186 110.533 158.706 108.667 158.706 106.56C158.706 104.933 158.972 103.44 159.506 102.08C160.039 100.72 160.786 99.5467 161.746 98.56C162.706 97.5467 163.839 96.7733 165.146 96.24C166.479 95.68 167.919 95.4 169.466 95.4C170.906 95.4 172.239 95.6667 173.466 96.2C174.692 96.7067 175.746 97.44 176.626 98.4C177.532 99.3333 178.226 100.44 178.706 101.72C179.186 103 179.399 104.4 179.346 105.92L179.306 107.68H162.306L161.386 104.2H174.626L173.986 104.92V104.04C173.932 103.32 173.692 102.667 173.266 102.08C172.866 101.493 172.346 101.04 171.706 100.72C171.066 100.4 170.346 100.24 169.546 100.24C168.372 100.24 167.372 100.467 166.546 100.92C165.746 101.373 165.132 102.04 164.706 102.92C164.279 103.8 164.066 104.867 164.066 106.12C164.066 107.4 164.332 108.507 164.866 109.44C165.426 110.373 166.199 111.107 167.186 111.64C168.199 112.147 169.386 112.4 170.746 112.4C171.679 112.4 172.532 112.253 173.306 111.96C174.079 111.667 174.906 111.16 175.786 110.44L178.506 114.24C177.732 114.933 176.879 115.52 175.946 116C175.012 116.453 174.052 116.8 173.066 117.04C172.079 117.28 171.106 117.4 170.146 117.4ZM185.663 117.44C184.623 117.44 183.823 117.147 183.263 116.56C182.703 115.973 182.423 115.133 182.423 114.04C182.423 113.053 182.716 112.253 183.303 111.64C183.916 111 184.703 110.68 185.663 110.68C186.676 110.68 187.463 110.973 188.023 111.56C188.583 112.147 188.863 112.973 188.863 114.04C188.863 115.053 188.57 115.88 187.983 116.52C187.396 117.133 186.623 117.44 185.663 117.44Z" fill="#344054"/>
<path d="M190.906 117L201.866 89H207.226L218.146 117H211.986L206.346 101.92C206.186 101.493 205.986 100.947 205.746 100.28C205.533 99.6133 205.306 98.9067 205.066 98.16C204.826 97.4133 204.599 96.7067 204.386 96.04C204.173 95.3467 204.013 94.7733 203.906 94.32L204.986 94.28C204.826 94.8933 204.639 95.5333 204.426 96.2C204.239 96.84 204.039 97.5067 203.826 98.2C203.613 98.8667 203.386 99.52 203.146 100.16C202.906 100.8 202.679 101.427 202.466 102.04L196.826 117H190.906ZM195.986 111.12L197.946 106.28H210.786L212.786 111.12H195.986ZM221.358 117V111.84H226.038V94.16H221.358V89H236.718V94.16H232.038V111.84H236.718V117H221.358Z" fill="#2E90FA"/>
<path d="M132.681 60.8005H127.758V23.8291H132.681V60.8005Z" fill="#1570EF"/>
<path d="M119.332 30.4961H124.225V60.7754H119.332V30.4961Z" fill="#1570EF"/>
<path d="M122.794 27.0108C120.818 26.9683 120.353 25.751 119.667 24.4564C119.481 24.8838 119.367 25.1312 119.265 25.3817C117.471 29.8036 114.079 33.0505 108.52 34.6491C102.972 36.2448 97.2586 34.7278 93.9246 30.8212C93.4918 30.3137 93.0601 29.8042 92.6663 29.2772C92.4686 29.0125 92.3575 28.7059 92.207 28.4183L92.5628 28.1947C92.9569 28.5832 93.4165 28.9398 93.7325 29.3654C96.1039 32.5591 100.145 33.5962 104.716 32.5999C109.694 31.5151 112.895 28.7341 114.927 24.9812C114.202 25.4096 113.486 25.8476 112.751 26.2648C111.018 27.249 110.397 27.2091 108.874 26.051C108.695 25.9137 108.486 25.7996 108.208 25.6217C108.432 25.4651 108.602 25.3263 108.794 25.2162C111.44 23.7153 113.641 21.8806 115.212 19.5981C115.633 18.9866 116.144 18.7343 116.89 19.0952C117.714 19.4935 118.783 19.8466 119.201 20.4584C120.469 22.313 121.481 24.2803 122.571 26.2119C122.709 26.4556 122.723 26.7433 122.794 27.0108Z" fill="#1570EF"/>
<path d="M94.6133 36.0674H99.5258V60.803H94.6133V36.0674Z" fill="#1570EF"/>
<path d="M111.031 36.0664H115.935V60.7707H111.031V36.0664Z" fill="#1570EF"/>
<path d="M102.863 42.6826H107.782V60.79H102.863V42.6826Z" fill="#1570EF"/>
<path d="M140.742 60.806H135.852V42.7158H140.742V60.806Z" fill="#1570EF"/>
</svg>
