<svg width="24" height="24" viewBox="0 0 24 24" fill="none" xmlns="http://www.w3.org/2000/svg">
<g clip-path="url(#clip0_301_150)">
<path d="M3 9.00001C2.99995 7.51383 3.36795 6.05077 4.07112 4.74146C4.77429 3.43215 5.79076 2.31736 7.02976 1.49661C8.26876 0.675872 9.69172 0.174729 11.1716 0.0379339C12.6515 -0.0988616 14.1422 0.132948 15.5106 0.712665C16.8791 1.29238 18.0827 2.20196 19.014 3.36018C19.9452 4.51841 20.5752 5.88922 20.8476 7.35023C21.1199 8.81124 21.0263 10.317 20.5749 11.733C20.1236 13.1489 19.3286 14.4311 18.261 15.465C17.9565 15.759 17.7225 16.065 17.5815 16.3935L16.4385 19.047C16.3805 19.1815 16.2844 19.2961 16.1621 19.3766C16.0397 19.4571 15.8965 19.5 15.75 19.5C15.9489 19.5 16.1397 19.579 16.2803 19.7197C16.421 19.8603 16.5 20.0511 16.5 20.25C16.5 20.4489 16.421 20.6397 16.2803 20.7803C16.1397 20.921 15.9489 21 15.75 21C15.9489 21 16.1397 21.079 16.2803 21.2197C16.421 21.3603 16.5 21.5511 16.5 21.75C16.5 21.9489 16.421 22.1397 16.2803 22.2803C16.1397 22.421 15.9489 22.5 15.75 22.5L15.414 23.1705C15.2895 23.4196 15.0981 23.6292 14.8613 23.7757C14.6244 23.9222 14.3515 23.9999 14.073 24H9.927C9.64851 23.9999 9.37555 23.9222 9.13871 23.7757C8.90187 23.6292 8.71049 23.4196 8.586 23.1705L8.25 22.5C8.05109 22.5 7.86032 22.421 7.71967 22.2803C7.57902 22.1397 7.5 21.9489 7.5 21.75C7.5 21.5511 7.57902 21.3603 7.71967 21.2197C7.86032 21.079 8.05109 21 8.25 21C8.05109 21 7.86032 20.921 7.71967 20.7803C7.57902 20.6397 7.5 20.4489 7.5 20.25C7.5 20.0511 7.57902 19.8603 7.71967 19.7197C7.86032 19.579 8.05109 19.5 8.25 19.5C8.10329 19.5003 7.95972 19.4575 7.83708 19.377C7.71443 19.2964 7.6181 19.1817 7.56 19.047L6.4185 16.392C6.25506 16.0414 6.02416 15.7264 5.739 15.465C4.87143 14.6268 4.18175 13.6222 3.71114 12.5114C3.24053 11.4006 2.99867 10.2064 3 9.00001ZM12 1.50001C10.5062 1.49976 9.04644 1.94556 7.80767 2.78028C6.56891 3.615 5.60761 4.80061 5.04699 6.18517C4.48636 7.56973 4.35195 9.09016 4.66098 10.5516C4.97 12.013 5.70839 13.3489 6.7815 14.388C7.176 14.769 7.5525 15.234 7.7955 15.7995L8.745 18H15.258L16.206 15.7995C16.449 15.234 16.8255 14.769 17.22 14.388C18.2932 13.3488 19.0316 12.0128 19.3406 10.5512C19.6496 9.08965 19.515 7.5691 18.9542 6.18447C18.3934 4.79985 17.4319 3.61425 16.1929 2.77965C14.9539 1.94504 13.4939 1.49946 12 1.50001Z" fill="white"/>
</g>
<defs>
<clipPath id="clip0_301_150">
<rect width="24" height="24" fill="white"/>
</clipPath>
</defs>
</svg>
