<svg width="275" height="50" viewBox="0 0 275 50" fill="none" xmlns="http://www.w3.org/2000/svg">
<path d="M35.8377 42.9427H31.4785V11.2529H35.8377V42.9427Z" fill="#1570EF"/>
<path d="M24.0176 16.9678H28.3501V42.9215H24.0176V16.9678Z" fill="#1570EF"/>
<path d="M27.0826 13.9802C25.3328 13.9438 24.9207 12.9004 24.3136 11.7908C24.1486 12.1571 24.0478 12.3691 23.9577 12.5839C22.3687 16.3741 19.366 19.1571 14.4434 20.5273C9.53136 21.8951 4.47273 20.5948 1.52073 17.2463C1.13753 16.8113 0.755287 16.3746 0.406668 15.9229C0.231565 15.696 0.13323 15.4332 0 15.1866L0.314994 14.995C0.663931 15.328 1.07092 15.6337 1.3507 15.9985C3.45035 18.7359 7.02885 19.6249 11.0759 18.7709C15.4829 17.8411 18.3176 15.4573 20.1165 12.2406C19.4748 12.6078 18.8404 12.9832 18.1897 13.3408C16.6557 14.1844 16.1053 14.1502 14.7572 13.1576C14.5986 13.0398 14.4133 12.942 14.1671 12.7896C14.366 12.6553 14.5161 12.5364 14.6861 12.442C17.0291 11.1556 18.9777 9.58289 20.369 7.62646C20.7421 7.10232 21.1938 6.88606 21.8548 7.19542C22.5844 7.53681 23.531 7.83952 23.9012 8.36391C25.0235 9.95358 25.9193 11.6398 26.8849 13.2955C27.0067 13.5044 27.0194 13.7509 27.0826 13.9802Z" fill="#1570EF"/>
<path d="M2.13086 21.7432H6.48051V42.9451H2.13086V21.7432Z" fill="#1570EF"/>
<path d="M16.668 21.7422H21.01V42.9173H16.668V21.7422Z" fill="#1570EF"/>
<path d="M9.43555 27.4131H13.7909V42.9337H9.43555V27.4131Z" fill="#1570EF"/>
<path d="M42.9748 42.9472H38.6445V27.4414H42.9748V42.9472Z" fill="#1570EF"/>
<path d="M61.5326 38.5V19.456H66.4646L66.6446 25.576L65.7806 24.316C66.0686 23.332 66.5366 22.444 67.1846 21.652C67.8326 20.836 68.5886 20.2 69.4526 19.744C70.3406 19.288 71.2646 19.06 72.2246 19.06C72.6326 19.06 73.0286 19.096 73.4126 19.168C73.7966 19.24 74.1206 19.324 74.3846 19.42L73.0166 25.036C72.7286 24.892 72.3806 24.772 71.9726 24.676C71.5646 24.556 71.1446 24.496 70.7126 24.496C70.1366 24.496 69.5966 24.604 69.0926 24.82C68.6126 25.012 68.1926 25.3 67.8326 25.684C67.4726 26.044 67.1846 26.476 66.9686 26.98C66.7766 27.484 66.6806 28.036 66.6806 28.636V38.5H61.5326ZM85.5451 38.86C83.4811 38.86 81.6811 38.44 80.1451 37.6C78.6091 36.76 77.4091 35.608 76.5451 34.144C75.6811 32.68 75.2491 31 75.2491 29.104C75.2491 27.64 75.4891 26.296 75.9691 25.072C76.4491 23.848 77.1211 22.792 77.9851 21.904C78.8491 20.992 79.8691 20.296 81.0451 19.816C82.2451 19.312 83.5411 19.06 84.9331 19.06C86.2291 19.06 87.4291 19.3 88.5331 19.78C89.6371 20.236 90.5851 20.896 91.3771 21.76C92.1931 22.6 92.8171 23.596 93.2491 24.748C93.6811 25.9 93.8731 27.16 93.8251 28.528L93.7891 30.112H78.4891L77.6611 26.98H89.5771L89.0011 27.628V26.836C88.9531 26.188 88.7371 25.6 88.3531 25.072C87.9931 24.544 87.5251 24.136 86.9491 23.848C86.3731 23.56 85.7251 23.416 85.0051 23.416C83.9491 23.416 83.0491 23.62 82.3051 24.028C81.5851 24.436 81.0331 25.036 80.6491 25.828C80.2651 26.62 80.0731 27.58 80.0731 28.708C80.0731 29.86 80.3131 30.856 80.7931 31.696C81.2971 32.536 81.9931 33.196 82.8811 33.676C83.7931 34.132 84.8611 34.36 86.0851 34.36C86.9251 34.36 87.6931 34.228 88.3891 33.964C89.0851 33.7 89.8291 33.244 90.6211 32.596L93.0691 36.016C92.3731 36.64 91.6051 37.168 90.7651 37.6C89.9251 38.008 89.0611 38.32 88.1731 38.536C87.2851 38.752 86.4091 38.86 85.5451 38.86ZM105.883 38.86C104.059 38.86 102.427 38.428 100.987 37.564C99.5469 36.7 98.4069 35.524 97.5669 34.036C96.7509 32.548 96.3429 30.856 96.3429 28.96C96.3429 27.088 96.7509 25.408 97.5669 23.92C98.4069 22.408 99.5469 21.22 100.987 20.356C102.427 19.492 104.059 19.06 105.883 19.06C107.587 19.06 109.147 19.372 110.563 19.996C111.979 20.62 113.083 21.484 113.875 22.588L111.067 25.972C110.731 25.516 110.311 25.108 109.807 24.748C109.303 24.364 108.751 24.064 108.151 23.848C107.575 23.632 106.975 23.524 106.351 23.524C105.367 23.524 104.491 23.764 103.723 24.244C102.979 24.7 102.391 25.336 101.959 26.152C101.527 26.968 101.311 27.904 101.311 28.96C101.311 29.992 101.527 30.916 101.959 31.732C102.415 32.524 103.027 33.172 103.795 33.676C104.563 34.156 105.427 34.396 106.387 34.396C107.011 34.396 107.599 34.312 108.151 34.144C108.703 33.952 109.219 33.676 109.699 33.316C110.203 32.956 110.659 32.524 111.067 32.02L113.839 35.404C113.023 36.436 111.895 37.276 110.455 37.924C109.015 38.548 107.491 38.86 105.883 38.86ZM125.971 38.86C124.027 38.86 122.287 38.44 120.751 37.6C119.239 36.736 118.039 35.56 117.151 34.072C116.287 32.584 115.855 30.88 115.855 28.96C115.855 27.04 116.287 25.348 117.151 23.884C118.039 22.396 119.239 21.22 120.751 20.356C122.287 19.492 124.027 19.06 125.971 19.06C127.891 19.06 129.607 19.492 131.119 20.356C132.655 21.22 133.855 22.396 134.719 23.884C135.583 25.348 136.015 27.04 136.015 28.96C136.015 30.88 135.583 32.584 134.719 34.072C133.855 35.56 132.655 36.736 131.119 37.6C129.607 38.44 127.891 38.86 125.971 38.86ZM125.971 34.396C126.907 34.396 127.747 34.168 128.491 33.712C129.235 33.232 129.811 32.584 130.219 31.768C130.651 30.928 130.867 29.992 130.867 28.96C130.867 27.904 130.651 26.968 130.219 26.152C129.811 25.312 129.235 24.664 128.491 24.208C127.747 23.728 126.907 23.488 125.971 23.488C125.011 23.488 124.159 23.728 123.415 24.208C122.671 24.688 122.083 25.336 121.651 26.152C121.219 26.968 121.015 27.904 121.039 28.96C121.015 29.992 121.219 30.928 121.651 31.768C122.083 32.584 122.671 33.232 123.415 33.712C124.159 34.168 125.011 34.396 125.971 34.396ZM139.861 38.5V19.456H144.757L144.901 23.344L143.893 23.776C144.157 22.912 144.625 22.132 145.297 21.436C145.993 20.716 146.821 20.14 147.781 19.708C148.741 19.276 149.749 19.06 150.805 19.06C152.245 19.06 153.445 19.348 154.405 19.924C155.389 20.5 156.121 21.376 156.601 22.552C157.105 23.704 157.357 25.132 157.357 26.836V38.5H152.245V27.232C152.245 26.368 152.125 25.648 151.885 25.072C151.645 24.496 151.273 24.076 150.769 23.812C150.289 23.524 149.689 23.404 148.969 23.452C148.393 23.452 147.853 23.548 147.349 23.74C146.869 23.908 146.449 24.16 146.089 24.496C145.753 24.832 145.477 25.216 145.261 25.648C145.069 26.08 144.973 26.548 144.973 27.052V38.5H142.453C141.901 38.5 141.409 38.5 140.977 38.5C140.545 38.5 140.173 38.5 139.861 38.5ZM170.535 38.86C168.711 38.86 167.079 38.428 165.639 37.564C164.199 36.7 163.059 35.524 162.219 34.036C161.403 32.548 160.995 30.856 160.995 28.96C160.995 27.088 161.403 25.408 162.219 23.92C163.059 22.408 164.199 21.22 165.639 20.356C167.079 19.492 168.711 19.06 170.535 19.06C172.239 19.06 173.799 19.372 175.215 19.996C176.631 20.62 177.735 21.484 178.527 22.588L175.719 25.972C175.383 25.516 174.963 25.108 174.459 24.748C173.955 24.364 173.403 24.064 172.803 23.848C172.227 23.632 171.627 23.524 171.003 23.524C170.019 23.524 169.143 23.764 168.375 24.244C167.631 24.7 167.043 25.336 166.611 26.152C166.179 26.968 165.963 27.904 165.963 28.96C165.963 29.992 166.179 30.916 166.611 31.732C167.067 32.524 167.679 33.172 168.447 33.676C169.215 34.156 170.079 34.396 171.039 34.396C171.663 34.396 172.251 34.312 172.803 34.144C173.355 33.952 173.871 33.676 174.351 33.316C174.855 32.956 175.311 32.524 175.719 32.02L178.491 35.404C177.675 36.436 176.547 37.276 175.107 37.924C173.667 38.548 172.143 38.86 170.535 38.86ZM182.199 38.5V19.456H187.311V38.5H182.199ZM184.719 15.532C183.735 15.532 182.967 15.292 182.415 14.812C181.863 14.332 181.587 13.648 181.587 12.76C181.587 11.944 181.863 11.284 182.415 10.78C182.991 10.252 183.759 9.988 184.719 9.988C185.703 9.988 186.471 10.24 187.023 10.744C187.575 11.224 187.851 11.896 187.851 12.76C187.851 13.6 187.563 14.272 186.987 14.776C186.435 15.28 185.679 15.532 184.719 15.532ZM192.807 38.5V11.86H197.919V38.5H192.807ZM211.791 38.86C209.727 38.86 207.927 38.44 206.391 37.6C204.855 36.76 203.655 35.608 202.791 34.144C201.927 32.68 201.495 31 201.495 29.104C201.495 27.64 201.735 26.296 202.215 25.072C202.695 23.848 203.367 22.792 204.231 21.904C205.095 20.992 206.115 20.296 207.291 19.816C208.491 19.312 209.787 19.06 211.179 19.06C212.475 19.06 213.675 19.3 214.779 19.78C215.883 20.236 216.831 20.896 217.623 21.76C218.439 22.6 219.063 23.596 219.495 24.748C219.927 25.9 220.119 27.16 220.071 28.528L220.035 30.112H204.735L203.907 26.98H215.823L215.247 27.628V26.836C215.199 26.188 214.983 25.6 214.599 25.072C214.239 24.544 213.771 24.136 213.195 23.848C212.619 23.56 211.971 23.416 211.251 23.416C210.195 23.416 209.295 23.62 208.551 24.028C207.831 24.436 207.279 25.036 206.895 25.828C206.511 26.62 206.319 27.58 206.319 28.708C206.319 29.86 206.559 30.856 207.039 31.696C207.543 32.536 208.239 33.196 209.127 33.676C210.039 34.132 211.107 34.36 212.331 34.36C213.171 34.36 213.939 34.228 214.635 33.964C215.331 33.7 216.075 33.244 216.867 32.596L219.315 36.016C218.619 36.64 217.851 37.168 217.011 37.6C216.171 38.008 215.307 38.32 214.419 38.536C213.531 38.752 212.655 38.86 211.791 38.86ZM225.757 38.896C224.821 38.896 224.101 38.632 223.597 38.104C223.093 37.576 222.841 36.82 222.841 35.836C222.841 34.948 223.105 34.228 223.633 33.676C224.185 33.1 224.893 32.812 225.757 32.812C226.669 32.812 227.377 33.076 227.881 33.604C228.385 34.132 228.637 34.876 228.637 35.836C228.637 36.748 228.373 37.492 227.845 38.068C227.317 38.62 226.621 38.896 225.757 38.896Z" fill="#101828"/>
<path d="M230.476 38.5L240.34 13.3H245.164L254.992 38.5H249.448L244.372 24.928C244.228 24.544 244.048 24.052 243.832 23.452C243.64 22.852 243.436 22.216 243.22 21.544C243.004 20.872 242.8 20.236 242.608 19.636C242.416 19.012 242.272 18.496 242.176 18.088L243.148 18.052C243.004 18.604 242.836 19.18 242.644 19.78C242.476 20.356 242.296 20.956 242.104 21.58C241.912 22.18 241.708 22.768 241.492 23.344C241.276 23.92 241.072 24.484 240.88 25.036L235.804 38.5H230.476ZM235.048 33.208L236.812 28.852H248.367L250.168 33.208H235.048ZM257.882 38.5V33.856H262.094V17.944H257.882V13.3H271.706V17.944H267.494V33.856H271.706V38.5H257.882Z" fill="#2E90FA"/>
</svg>
