<svg width="24" height="24" viewBox="0 0 24 24" fill="none" xmlns="http://www.w3.org/2000/svg">
<g clip-path="url(#clip0_301_136)">
<path d="M4.299 22.275C4.182 22.941 4.839 23.4615 5.418 23.1645L12.003 19.7805L18.5865 23.1645C19.1655 23.4615 19.8225 22.941 19.7055 22.2765L18.4605 15.1815L23.7435 10.1475C24.2385 9.67651 23.9835 8.81551 23.3205 8.72251L15.9735 7.67851L12.6975 1.18801C12.6351 1.05644 12.5366 0.945281 12.4136 0.867445C12.2905 0.789609 12.1479 0.748291 12.0023 0.748291C11.8566 0.748291 11.714 0.789609 11.5909 0.867445C11.4679 0.945281 11.3694 1.05644 11.307 1.18801L8.031 7.68001L0.684 8.72401C0.0225 8.81701 -0.234 9.67801 0.2595 10.149L5.544 15.183L4.299 22.278V22.275ZM11.6565 18.1245L6.1275 20.9655L7.1685 15.03C7.19289 14.8934 7.18335 14.7528 7.14071 14.6208C7.09808 14.4887 7.02366 14.3691 6.924 14.2725L2.565 10.1175L8.643 9.25351C8.76886 9.2345 8.88823 9.18527 8.9909 9.11003C9.09357 9.0348 9.17647 8.93579 9.2325 8.82151L12 3.33451L14.7705 8.82151C14.8265 8.93579 14.9094 9.0348 15.0121 9.11003C15.1148 9.18527 15.2341 9.2345 15.36 9.25351L21.438 10.116L17.079 14.271C16.9791 14.3677 16.9045 14.4876 16.8619 14.62C16.8193 14.7523 16.8099 14.8931 16.8345 15.03L17.8755 20.9655L12.3465 18.1245C12.2396 18.0694 12.121 18.0406 12.0007 18.0406C11.8805 18.0406 11.7619 18.0694 11.655 18.1245H11.6565Z" fill="white"/>
</g>
<defs>
<clipPath id="clip0_301_136">
<rect width="24" height="24" fill="white"/>
</clipPath>
</defs>
</svg>
