<svg width="25" height="24" viewBox="0 0 25 24" fill="none" xmlns="http://www.w3.org/2000/svg">
<path d="M4.25781 6C4.25781 4.89543 5.15324 4 6.25781 4H8.25781C9.36238 4 10.2578 4.89543 10.2578 6V8C10.2578 9.10457 9.36238 10 8.25781 10H6.25781C5.15324 10 4.25781 9.10457 4.25781 8V6Z" stroke="#ACACAC" stroke-width="2" stroke-linecap="round" stroke-linejoin="round"/>
<path d="M14.2578 6C14.2578 4.89543 15.1532 4 16.2578 4H18.2578C19.3624 4 20.2578 4.89543 20.2578 6V8C20.2578 9.10457 19.3624 10 18.2578 10H16.2578C15.1532 10 14.2578 9.10457 14.2578 8V6Z" stroke="#ACACAC" stroke-width="2" stroke-linecap="round" stroke-linejoin="round"/>
<path d="M4.25781 16C4.25781 14.8954 5.15324 14 6.25781 14H8.25781C9.36238 14 10.2578 14.8954 10.2578 16V18C10.2578 19.1046 9.36238 20 8.25781 20H6.25781C5.15324 20 4.25781 19.1046 4.25781 18V16Z" stroke="#ACACAC" stroke-width="2" stroke-linecap="round" stroke-linejoin="round"/>
<path d="M14.2578 16C14.2578 14.8954 15.1532 14 16.2578 14H18.2578C19.3624 14 20.2578 14.8954 20.2578 16V18C20.2578 19.1046 19.3624 20 18.2578 20H16.2578C15.1532 20 14.2578 19.1046 14.2578 18V16Z" stroke="#ACACAC" stroke-width="2" stroke-linecap="round" stroke-linejoin="round"/>
</svg>
