<svg width="25" height="26" viewBox="0 0 25 26" fill="none" xmlns="http://www.w3.org/2000/svg">
<rect x="0.5" y="1" width="24" height="24" rx="8" fill="#F9FAFB" stroke="#F9FAFB"/>
<mask id="mask0_1161_70385" style="mask-type:alpha" maskUnits="userSpaceOnUse" x="4" y="5" width="17" height="16">
<rect x="4.5" y="5" width="16" height="16" fill="#101828"/>
</mask>
<g mask="url(#mask0_1161_70385)">
<path d="M12.5 19C10.8333 19 9.41667 18.4167 8.25 17.25C7.08333 16.0833 6.5 14.6667 6.5 13C6.5 11.3333 7.08333 9.91667 8.25 8.75C9.41667 7.58333 10.8333 7 12.5 7C12.6556 7 12.8084 7.00556 12.9587 7.01667C13.1084 7.02778 13.2556 7.04444 13.4 7.06667C12.9444 7.38889 12.5807 7.80822 12.3087 8.32467C12.0362 8.84156 11.9 9.4 11.9 10C11.9 11 12.25 11.85 12.95 12.55C13.65 13.25 14.5 13.6 15.5 13.6C16.1111 13.6 16.6722 13.4638 17.1833 13.1913C17.6944 12.9193 18.1111 12.5556 18.4333 12.1C18.4556 12.2444 18.4722 12.3916 18.4833 12.5413C18.4944 12.6916 18.5 12.8444 18.5 13C18.5 14.6667 17.9167 16.0833 16.75 17.25C15.5833 18.4167 14.1667 19 12.5 19ZM12.5 17.6667C13.4778 17.6667 14.3556 17.3973 15.1333 16.8587C15.9111 16.3196 16.4778 15.6167 16.8333 14.75C16.6111 14.8056 16.3889 14.85 16.1667 14.8833C15.9444 14.9167 15.7222 14.9333 15.5 14.9333C14.1333 14.9333 12.9693 14.4529 12.008 13.492C11.0471 12.5307 10.5667 11.3667 10.5667 10C10.5667 9.77778 10.5833 9.55556 10.6167 9.33333C10.65 9.11111 10.6944 8.88889 10.75 8.66667C9.88333 9.02222 9.18067 9.58889 8.642 10.3667C8.10289 11.1444 7.83333 12.0222 7.83333 13C7.83333 14.2889 8.28889 15.3889 9.2 16.3C10.1111 17.2111 11.2111 17.6667 12.5 17.6667Z" fill="#1570EF"/>
</g>
</svg>
