<svg width="20" height="21" viewBox="0 0 20 21" fill="none" xmlns="http://www.w3.org/2000/svg">
<path d="M10.8334 10.6667H15.8334V8.66668H10.8334V10.6667ZM15.6667 10.5V16.3333H17.6667V10.5H15.6667ZM15.8334 16.1667H10.8334V18.1667H15.8334V16.1667ZM11 16.3333V10.5H9.00004V16.3333H11ZM4.16671 4.83334H6.66671V2.83334H4.16671V4.83334ZM6.50004 4.66668V16.3333H8.50004V4.66668H6.50004ZM6.66671 16.1667H4.16671V18.1667H6.66671V16.1667ZM4.33337 16.3333V4.66668H2.33337V16.3333H4.33337ZM4.16671 16.1667C4.25875 16.1667 4.33337 16.2413 4.33337 16.3333H2.33337C2.33337 17.3459 3.15419 18.1667 4.16671 18.1667V16.1667ZM6.50004 16.3333C6.50004 16.2413 6.57466 16.1667 6.66671 16.1667V18.1667C7.67923 18.1667 8.50004 17.3459 8.50004 16.3333H6.50004ZM6.66671 4.83334C6.57466 4.83334 6.50004 4.75872 6.50004 4.66668H8.50004C8.50004 3.65415 7.67923 2.83334 6.66671 2.83334V4.83334ZM4.16671 2.83334C3.15419 2.83334 2.33337 3.65415 2.33337 4.66668H4.33337C4.33337 4.75872 4.25875 4.83334 4.16671 4.83334V2.83334ZM10.8334 4.83334H15.8334V2.83334H10.8334V4.83334ZM15.6667 4.66668V6.33334H17.6667V4.66668H15.6667ZM15.8334 6.16668H10.8334V8.16668H15.8334V6.16668ZM11 6.33334V4.66668H9.00004V6.33334H11ZM10.8334 6.16668C10.9254 6.16668 11 6.2413 11 6.33334H9.00004C9.00004 7.34587 9.82085 8.16668 10.8334 8.16668V6.16668ZM15.6667 6.33334C15.6667 6.2413 15.7413 6.16668 15.8334 6.16668V8.16668C16.8459 8.16668 17.6667 7.34587 17.6667 6.33334H15.6667ZM15.8334 4.83334C15.7413 4.83334 15.6667 4.75872 15.6667 4.66668H17.6667C17.6667 3.65415 16.8459 2.83334 15.8334 2.83334V4.83334ZM10.8334 2.83334C9.82085 2.83334 9.00004 3.65415 9.00004 4.66668H11C11 4.75872 10.9254 4.83334 10.8334 4.83334V2.83334ZM10.8334 16.1667C10.9254 16.1667 11 16.2413 11 16.3333H9.00004C9.00004 17.3459 9.82085 18.1667 10.8334 18.1667V16.1667ZM15.6667 16.3333C15.6667 16.2413 15.7413 16.1667 15.8334 16.1667V18.1667C16.8459 18.1667 17.6667 17.3459 17.6667 16.3333H15.6667ZM15.8334 10.6667C15.7413 10.6667 15.6667 10.5921 15.6667 10.5H17.6667C17.6667 9.48749 16.8459 8.66668 15.8334 8.66668V10.6667ZM10.8334 8.66668C9.82085 8.66668 9.00004 9.48749 9.00004 10.5H11C11 10.5921 10.9254 10.6667 10.8334 10.6667V8.66668Z" fill="#F9FAFB"/>
</svg>
