<svg width="24" height="25" viewBox="0 0 24 25" fill="none" xmlns="http://www.w3.org/2000/svg">
<path d="M14 12.5H19V10.5H14V12.5ZM19 12.5V19.5H21V12.5H19ZM19 19.5H14V21.5H19V19.5ZM14 19.5V12.5H12V19.5H14ZM5 5.5H9V3.5H5V5.5ZM9 5.5V12.5H11V5.5H9ZM9 12.5H5V14.5H9V12.5ZM5 12.5V5.5H3V12.5H5ZM5 12.5H3C3 13.6046 3.89543 14.5 5 14.5V12.5ZM9 12.5V14.5C10.1046 14.5 11 13.6046 11 12.5H9ZM9 5.5H11C11 4.39543 10.1046 3.5 9 3.5V5.5ZM5 3.5C3.89543 3.5 3 4.39543 3 5.5H5V3.5ZM5 17.5H9V15.5H5V17.5ZM9 17.5V19.5H11V17.5H9ZM9 19.5H5V21.5H9V19.5ZM5 19.5V17.5H3V19.5H5ZM5 19.5H3C3 20.6046 3.89543 21.5 5 21.5V19.5ZM9 19.5V21.5C10.1046 21.5 11 20.6046 11 19.5H9ZM9 17.5H11C11 16.3954 10.1046 15.5 9 15.5V17.5ZM5 15.5C3.89543 15.5 3 16.3954 3 17.5H5V15.5ZM14 5.5H19V3.5H14V5.5ZM19 5.5V7.5H21V5.5H19ZM19 7.5H14V9.5H19V7.5ZM14 7.5V5.5H12V7.5H14ZM14 7.5H12C12 8.60457 12.8954 9.5 14 9.5V7.5ZM19 7.5V9.5C20.1046 9.5 21 8.60457 21 7.5H19ZM19 5.5H21C21 4.39543 20.1046 3.5 19 3.5V5.5ZM14 3.5C12.8954 3.5 12 4.39543 12 5.5H14V3.5ZM14 19.5H12C12 20.6046 12.8954 21.5 14 21.5V19.5ZM19 19.5V21.5C20.1046 21.5 21 20.6046 21 19.5H19ZM19 12.5H21C21 11.3954 20.1046 10.5 19 10.5V12.5ZM14 10.5C12.8954 10.5 12 11.3954 12 12.5H14V10.5Z" fill="#101828"/>
</svg>
