<svg width="56" height="56" viewBox="0 0 56 56" fill="none" xmlns="http://www.w3.org/2000/svg">
<path d="M37.7306 44.2185H34.8586V17.3302H37.7306V44.2185Z" fill="#F9FAFB"/>
<path d="M29.9436 22.179H32.798V44.2003H29.9436V22.179Z" fill="#F9FAFB"/>
<path d="M31.9624 19.6443C30.8096 19.6134 30.5381 18.7281 30.1381 17.7866C30.0294 18.0974 29.963 18.2773 29.9036 18.4596C28.8568 21.6755 26.8785 24.0368 23.6354 25.1995C20.3992 26.36 17.0665 25.2567 15.1216 22.4155C14.8692 22.0464 14.6174 21.6759 14.3877 21.2926C14.2723 21.1001 14.2075 20.8771 14.1198 20.668L14.3273 20.5054C14.5572 20.7879 14.8253 21.0473 15.0096 21.3568C16.3929 23.6795 18.7505 24.4337 21.4168 23.7092C24.3203 22.9202 26.1878 20.8976 27.373 18.1682C26.9502 18.4798 26.5322 18.7983 26.1036 19.1018C25.0929 19.8176 24.7303 19.7885 23.8421 18.9463C23.7376 18.8464 23.6156 18.7634 23.4534 18.6341C23.5844 18.5202 23.6833 18.4192 23.7953 18.3392C25.3389 17.2476 26.6227 15.9132 27.5393 14.2532C27.7851 13.8085 28.0827 13.625 28.5182 13.8875C28.9989 14.1772 29.6225 14.434 29.8664 14.879C30.6058 16.2278 31.196 17.6585 31.8322 19.0633C31.9124 19.2406 31.9208 19.4498 31.9624 19.6443Z" fill="#F9FAFB"/>
<path d="M15.5233 26.2308H18.389V44.2203H15.5233V26.2308Z" fill="#F9FAFB"/>
<path d="M25.101 26.2297H27.9616V44.1965H25.101V26.2297Z" fill="#F9FAFB"/>
<path d="M20.3359 31.0421H23.2054V44.2111H20.3359V31.0421Z" fill="#F9FAFB"/>
<path d="M42.4332 44.2226H39.5803V31.0662H42.4332V44.2226Z" fill="#F9FAFB"/>
</svg>
