<svg width="20" height="21" viewBox="0 0 20 21" fill="none" xmlns="http://www.w3.org/2000/svg">
<path d="M15.3935 14.4186C14.4499 15.7173 13.0693 16.632 11.5054 16.9945C9.94147 17.357 8.29928 17.143 6.88051 16.3918C5.46174 15.6406 4.36168 14.4026 3.78245 12.9054C3.20321 11.4082 3.1837 9.7522 3.7275 8.24174C4.2713 6.73128 5.34189 5.46777 6.74256 4.68335C8.14324 3.89894 9.77994 3.64629 11.352 3.97184C12.924 4.29739 14.3257 5.17926 15.2997 6.45544C16.2736 7.73162 16.7544 9.31639 16.6536 10.9186M16.6536 10.9186L17.9036 9.66859M16.6536 10.9186L15.4036 9.66859" stroke="#F9FAFB" stroke-width="2" stroke-linecap="round" stroke-linejoin="round"/>
<path d="M10 7.16667V10.5L12.5 13" stroke="#F9FAFB" stroke-width="2" stroke-linecap="round" stroke-linejoin="round"/>
</svg>
