<svg width="25" height="26" viewBox="0 0 25 26" fill="none" xmlns="http://www.w3.org/2000/svg">
<rect x="0.5" y="1" width="24" height="24" rx="8" fill="#F9FAFB" stroke="#F9FAFB"/>
<mask id="mask0_1161_70390" style="mask-type:alpha" maskUnits="userSpaceOnUse" x="4" y="5" width="17" height="16">
<rect x="4.5" y="5" width="16" height="16" fill="#101828"/>
</mask>
<g mask="url(#mask0_1161_70390)">
<path d="M17.5667 19L13.3667 14.8C13.0333 15.0667 12.65 15.2778 12.2167 15.4333C11.7833 15.5889 11.3222 15.6667 10.8333 15.6667C9.62222 15.6667 8.59733 15.2473 7.75867 14.4087C6.91956 13.5696 6.5 12.5444 6.5 11.3333C6.5 10.1222 6.91956 9.09711 7.75867 8.258C8.59733 7.41933 9.62222 7 10.8333 7C12.0444 7 13.0696 7.41933 13.9087 8.258C14.7473 9.09711 15.1667 10.1222 15.1667 11.3333C15.1667 11.8222 15.0889 12.2833 14.9333 12.7167C14.7778 13.15 14.5667 13.5333 14.3 13.8667L18.5 18.0667L17.5667 19ZM10.8333 14.3333C11.6667 14.3333 12.3751 14.0418 12.9587 13.4587C13.5418 12.8751 13.8333 12.1667 13.8333 11.3333C13.8333 10.5 13.5418 9.79156 12.9587 9.208C12.3751 8.62489 11.6667 8.33333 10.8333 8.33333C10 8.33333 9.29156 8.62489 8.708 9.208C8.12489 9.79156 7.83333 10.5 7.83333 11.3333C7.83333 12.1667 8.12489 12.8751 8.708 13.4587C9.29156 14.0418 10 14.3333 10.8333 14.3333Z" fill="#1570EF"/>
</g>
</svg>
