<svg width="25" height="24" viewBox="0 0 25 24" fill="none" xmlns="http://www.w3.org/2000/svg">
<rect x="1" y="0.5" width="23" height="23" rx="7.5" fill="#F9FAFB" stroke="#F9FAFB"/>
<rect width="16" height="16" transform="translate(4.5 4)" fill="#F9FAFB"/>
<path d="M16.8407 14.0548L15.9635 14.5349L16.8407 14.0548ZM16.5998 13.6895L15.8128 14.3064L16.5998 13.6895ZM8.40004 13.6895L7.61303 13.0726L8.40004 13.6895ZM10.1666 9.99999C10.1666 8.71133 11.2113 7.66666 12.4999 7.66666V5.66666C10.1067 5.66666 8.16661 7.60676 8.16661 9.99999H10.1666ZM10.1666 12.0017V9.99999H8.16661V12.0017H10.1666ZM9.03638 14.5349C9.08031 14.4547 9.13075 14.3783 9.18705 14.3064L7.61303 13.0726C7.48968 13.2299 7.37882 13.3978 7.28201 13.5746L9.03638 14.5349ZM15.8333 14.3333H9.16661V16.3333H15.8333V14.3333ZM15.8128 14.3064C15.8691 14.3783 15.9196 14.4547 15.9635 14.5349L17.7179 13.5746C17.6211 13.3978 17.5102 13.2299 17.3869 13.0726L15.8128 14.3064ZM14.8333 9.99999V12.0017H16.8333V9.99999H14.8333ZM12.4999 7.66666C13.7886 7.66666 14.8333 8.71133 14.8333 9.99999H16.8333C16.8333 7.60676 14.8932 5.66666 12.4999 5.66666V7.66666ZM15.8333 16.3333C16.4719 16.3333 17.0983 16.0633 17.5062 15.5857C17.9457 15.0709 18.1181 14.3058 17.7179 13.5746L15.9635 14.5349C15.961 14.5304 15.9528 14.5135 15.9474 14.4853C15.9418 14.4568 15.9407 14.4249 15.9451 14.3928C15.9539 14.3273 15.9803 14.2927 15.9853 14.2869C15.9891 14.2823 15.9786 14.2956 15.9459 14.3102C15.9145 14.3241 15.8752 14.3333 15.8333 14.3333V16.3333ZM7.28201 13.5746C6.88178 14.3058 7.05416 15.0709 7.49371 15.5857C7.90161 16.0633 8.52795 16.3333 9.16661 16.3333V14.3333C9.12467 14.3333 9.08539 14.3241 9.05402 14.3102C9.02128 14.2956 9.01075 14.2823 9.01463 14.2869C9.01959 14.2927 9.04596 14.3273 9.05484 14.3928C9.05919 14.4249 9.05804 14.4568 9.05253 14.4853C9.04706 14.5135 9.03888 14.5304 9.03638 14.5349L7.28201 13.5746ZM17.3869 13.0726C16.9906 12.5671 16.8333 12.2548 16.8333 12.0017H14.8333C14.8333 13.0132 15.4289 13.8167 15.8128 14.3064L17.3869 13.0726ZM8.16661 12.0017C8.16661 12.2548 8.00929 12.5671 7.61303 13.0726L9.18705 14.3064C9.57097 13.8167 10.1666 13.0132 10.1666 12.0017H8.16661Z" fill="#1570EF"/>
<path d="M13.6984 17.2512C13.5874 17.4786 13.4141 17.6697 13.1986 17.8023C12.9831 17.9349 12.7343 18.0034 12.4813 17.9999C12.2284 17.9963 11.9816 17.9209 11.7699 17.7824C11.5582 17.6438 11.3902 17.4479 11.2857 17.2175" stroke="#1570EF" stroke-width="2" stroke-linecap="round" stroke-linejoin="round"/>
<path d="M12.5 6V6.66667" stroke="#1570EF" stroke-width="2" stroke-linecap="round" stroke-linejoin="round"/>
</svg>
