<svg width="25" height="25" viewBox="0 0 25 25" fill="none" xmlns="http://www.w3.org/2000/svg">
<path d="M6.57182 6.76794L7.07182 5.90192L6.57182 6.76794ZM5.2058 7.13397L4.33977 6.63397L4.33977 6.63397L5.2058 7.13397ZM4.2058 8.86602L3.33977 8.36602H3.33977L4.2058 8.86602ZM4.57182 10.232L4.07182 11.0981H4.07182L4.57182 10.232ZM4.57182 14.7679L4.07182 13.9019H4.07182L4.57182 14.7679ZM4.2058 16.134L5.07182 15.634H5.07182L4.2058 16.134ZM5.2058 17.866L4.33977 18.366H4.33977L5.2058 17.866ZM6.57182 18.232L7.07182 19.0981L6.57182 18.232ZM18.4282 18.232L17.9282 19.0981L17.9282 19.0981L18.4282 18.232ZM19.7943 17.866L18.9282 17.366L19.7943 17.866ZM20.7943 16.134L21.6603 16.634L20.7943 16.134ZM20.4282 14.7679L19.9282 15.634V15.634L20.4282 14.7679ZM20.4282 10.232L20.9282 11.0981V11.0981L20.4282 10.232ZM20.7943 8.86602L19.9282 9.36602L19.9282 9.36602L20.7943 8.86602ZM19.7943 7.13397L18.9282 7.63397L19.7943 7.13397ZM18.4282 6.76794L18.9282 7.63397L18.4282 6.76794ZM15.1513 7.11604L14.7088 8.01283L15.1513 7.11604ZM17.0118 7.58573L17.5118 8.45175L17.0118 7.58573ZM15.8359 7.51204L15.2792 8.34277L15.8359 7.51204ZM18.4871 12.1035L17.4893 12.1686L18.4871 12.1035ZM19.0117 11.0499L18.5117 10.1839L19.0117 11.0499ZM15.8359 17.488L15.2792 16.6572L15.8359 17.488ZM17.0118 17.4143L16.5118 18.2803L17.0118 17.4143ZM19.0117 13.9501L18.5117 14.8161L19.0117 13.9501ZM9.84879 17.884L10.2912 16.9872L9.84879 17.884ZM7.98826 17.4143L7.48826 16.5482L7.98826 17.4143ZM9.16418 17.488L8.60751 18.3187L9.16418 17.488ZM15.1513 17.884L15.5937 18.7808L15.1513 17.884ZM5.9884 11.0499L5.4884 11.9159L5.9884 11.0499ZM6.51292 12.1035L5.51504 12.0385L6.51292 12.1035ZM7.98827 7.58573L7.48827 8.45176L7.98827 7.58573ZM11.5 4.5V4.5V2.5C10.3955 2.5 9.50003 3.39543 9.50003 4.5H11.5ZM11.5 6.13424V4.5H9.50003V6.13424H11.5ZM9.72087 8.34277C9.903 8.22073 10.0935 8.1104 10.2912 8.01283L9.40634 6.21924C9.1291 6.35603 8.86233 6.51056 8.60751 6.68131L9.72087 8.34277ZM6.07182 7.63397L7.48827 8.45176L8.48827 6.7197L7.07182 5.90192L6.07182 7.63397ZM6.07182 7.63397L7.07182 5.90192C6.11524 5.34963 4.89206 5.67738 4.33977 6.63397L6.07182 7.63397ZM5.07182 9.36602L6.07182 7.63397L4.33977 6.63397L3.33977 8.36602L5.07182 9.36602ZM5.07182 9.36602L5.07182 9.36602L3.33977 8.36602C2.78749 9.32261 3.11524 10.5458 4.07182 11.0981L5.07182 9.36602ZM6.4884 10.1839L5.07182 9.36602L4.07182 11.0981L5.4884 11.9159L6.4884 10.1839ZM7.50003 12.5C7.50003 12.3885 7.50366 12.278 7.5108 12.1686L5.51504 12.0385C5.50508 12.1912 5.50003 12.3451 5.50003 12.5H7.50003ZM7.51079 12.8314C7.50366 12.722 7.50003 12.6115 7.50003 12.5H5.50003C5.50003 12.6549 5.50508 12.8088 5.51504 12.9615L7.51079 12.8314ZM5.07182 15.634L6.4884 14.8161L5.4884 13.0841L4.07182 13.9019L5.07182 15.634ZM5.07182 15.634L5.07182 15.634L4.07182 13.9019C3.11524 14.4542 2.78749 15.6774 3.33977 16.634L5.07182 15.634ZM6.07182 17.366L5.07182 15.634L3.33977 16.634L4.33977 18.366L6.07182 17.366ZM6.07182 17.366L6.07182 17.366L4.33977 18.366C4.89206 19.3226 6.11524 19.6504 7.07182 19.0981L6.07182 17.366ZM7.48826 16.5482L6.07182 17.366L7.07182 19.0981L8.48826 18.2803L7.48826 16.5482ZM10.2912 16.9872C10.0935 16.8896 9.90299 16.7793 9.72086 16.6572L8.60751 18.3187C8.86233 18.4894 9.1291 18.644 9.40634 18.7808L10.2912 16.9872ZM11.5 20.5V18.8658H9.50003V20.5H11.5ZM11.5 20.5H9.50003C9.50003 21.6046 10.3955 22.5 11.5 22.5V20.5ZM13.5 20.5H11.5V22.5H13.5V20.5ZM13.5 20.5V22.5C14.6046 22.5 15.5 21.6046 15.5 20.5H13.5ZM13.5 18.8658V20.5H15.5V18.8658H13.5ZM15.2792 16.6572C15.0971 16.7793 14.9066 16.8896 14.7088 16.9872L15.5937 18.7808C15.871 18.644 16.1377 18.4894 16.3925 18.3187L15.2792 16.6572ZM18.9282 17.366L17.5118 16.5482L16.5118 18.2803L17.9282 19.0981L18.9282 17.366ZM18.9282 17.366H18.9282L17.9282 19.0981C18.8848 19.6504 20.108 19.3226 20.6603 18.366L18.9282 17.366ZM19.9282 15.634L18.9282 17.366L20.6603 18.366L21.6603 16.634L19.9282 15.634ZM19.9282 15.634V15.634L21.6603 16.634C22.2126 15.6774 21.8848 14.4542 20.9282 13.9019L19.9282 15.634ZM18.5117 14.8161L19.9282 15.634L20.9282 13.9019L19.5117 13.0841L18.5117 14.8161ZM17.5 12.5C17.5 12.6115 17.4964 12.722 17.4893 12.8314L19.485 12.9615C19.495 12.8088 19.5 12.6549 19.5 12.5H17.5ZM17.4893 12.1686C17.4964 12.278 17.5 12.3885 17.5 12.5H19.5C19.5 12.3451 19.495 12.1912 19.485 12.0385L17.4893 12.1686ZM19.9282 9.36602L18.5117 10.1839L19.5117 11.9159L20.9282 11.0981L19.9282 9.36602ZM19.9282 9.36602L19.9282 9.36602L20.9282 11.0981C21.8848 10.5458 22.2126 9.32261 21.6603 8.36602L19.9282 9.36602ZM18.9282 7.63397L19.9282 9.36602L21.6603 8.36602L20.6603 6.63397L18.9282 7.63397ZM18.9282 7.63397V7.63397L20.6603 6.63397C20.108 5.67738 18.8848 5.34963 17.9282 5.90192L18.9282 7.63397ZM17.5118 8.45175L18.9282 7.63397L17.9282 5.90192L16.5118 6.7197L17.5118 8.45175ZM14.7088 8.01283C14.9066 8.1104 15.0971 8.22072 15.2792 8.34277L16.3925 6.68131C16.1377 6.51056 15.871 6.35603 15.5937 6.21924L14.7088 8.01283ZM13.5 4.5V6.13423H15.5V4.5H13.5ZM13.5 4.5H15.5C15.5 3.39543 14.6046 2.5 13.5 2.5V4.5ZM11.5 4.5H13.5V2.5H11.5V4.5ZM15.5937 6.21924C15.5509 6.19815 15.5231 6.17053 15.5092 6.15025C15.4971 6.13248 15.5 6.12788 15.5 6.13423H13.5C13.5 7.00299 14.049 7.68731 14.7088 8.01283L15.5937 6.21924ZM16.5118 6.7197C16.5172 6.71655 16.5148 6.72132 16.4936 6.71972C16.4693 6.71789 16.4318 6.70762 16.3925 6.68131L15.2792 8.34277C15.8914 8.75303 16.7593 8.88623 17.5118 8.45175L16.5118 6.7197ZM19.485 12.0385C19.4819 11.9913 19.4918 11.9537 19.5024 11.9318C19.5117 11.9126 19.5171 11.9128 19.5117 11.9159L18.5117 10.1839C17.7603 10.6177 17.4414 11.4342 17.4893 12.1686L19.485 12.0385ZM16.3925 18.3187C16.4318 18.2924 16.4693 18.2821 16.4936 18.2803C16.5148 18.2787 16.5172 18.2834 16.5118 18.2803L17.5118 16.5482C16.7593 16.1138 15.8914 16.247 15.2792 16.6572L16.3925 18.3187ZM19.5117 13.0841C19.5171 13.0872 19.5117 13.0874 19.5024 13.0682C19.4918 13.0462 19.4819 13.0087 19.485 12.9615L17.4893 12.8314C17.4414 13.5658 17.7603 14.3823 18.5117 14.8161L19.5117 13.0841ZM9.40634 18.7808C9.44911 18.8019 9.47699 18.8295 9.49082 18.8497C9.50294 18.8675 9.50003 18.8721 9.50003 18.8658H11.5C11.5 17.997 10.951 17.3127 10.2912 16.9872L9.40634 18.7808ZM8.48826 18.2803C8.4828 18.2834 8.48527 18.2787 8.50649 18.2803C8.53072 18.2821 8.56824 18.2924 8.60751 18.3187L9.72086 16.6572C9.10863 16.247 8.24079 16.1138 7.48826 16.5482L8.48826 18.2803ZM15.5 18.8658C15.5 18.8721 15.4971 18.8675 15.5092 18.8497C15.5231 18.8295 15.5509 18.8019 15.5937 18.7808L14.7088 16.9872C14.049 17.3127 13.5 17.997 13.5 18.8658H15.5ZM5.51504 12.9615C5.51811 13.0086 5.50821 13.0462 5.49765 13.0682C5.48839 13.0874 5.48298 13.0872 5.4884 13.0841L6.4884 14.8161C7.23979 14.3823 7.5587 13.5658 7.51079 12.8314L5.51504 12.9615ZM5.4884 11.9159C5.48298 11.9128 5.48839 11.9126 5.49765 11.9318C5.50821 11.9537 5.51811 11.9913 5.51504 12.0385L7.5108 12.1686C7.5587 11.4342 7.23979 10.6177 6.4884 10.1839L5.4884 11.9159ZM8.60751 6.68131C8.56825 6.70763 8.53073 6.71789 8.5065 6.71972C8.48528 6.72133 8.48281 6.71655 8.48827 6.7197L7.48827 8.45176C8.2408 8.88623 9.10864 8.75303 9.72087 8.34277L8.60751 6.68131ZM9.50003 6.13424C9.50003 6.12788 9.50294 6.13248 9.49082 6.15025C9.47699 6.17053 9.4491 6.19815 9.40634 6.21924L10.2912 8.01283C10.951 7.68731 11.5 7.00299 11.5 6.13424H9.50003Z" fill="#1570EF"/>
<circle cx="12.5" cy="12.5" r="3" stroke="#1570EF" stroke-width="2" stroke-linecap="round" stroke-linejoin="round"/>
</svg>
