<svg width="20" height="20" viewBox="0 0 20 20" fill="none" xmlns="http://www.w3.org/2000/svg">
<g clip-path="url(#clip0_1730_12537)">
<path d="M4.16663 12.5H3.33329C2.89127 12.5 2.46734 12.3244 2.15478 12.0119C1.84222 11.6993 1.66663 11.2754 1.66663 10.8334V3.33335C1.66663 2.89133 1.84222 2.4674 2.15478 2.15484C2.46734 1.84228 2.89127 1.66669 3.33329 1.66669H10.8333C11.2753 1.66669 11.6992 1.84228 12.0118 2.15484C12.3244 2.4674 12.5 2.89133 12.5 3.33335V4.16669M9.16663 7.50002H16.6666C17.5871 7.50002 18.3333 8.24621 18.3333 9.16669V16.6667C18.3333 17.5872 17.5871 18.3334 16.6666 18.3334H9.16663C8.24615 18.3334 7.49996 17.5872 7.49996 16.6667V9.16669C7.49996 8.24621 8.24615 7.50002 9.16663 7.50002Z" stroke="#344054" stroke-width="1.67" stroke-linecap="round" stroke-linejoin="round"/>
</g>
<defs>
<clipPath id="clip0_1730_12537">
<rect width="20" height="20" fill="white"/>
</clipPath>
</defs>
</svg>
