<svg width="44" height="44" viewBox="0 0 44 44" fill="none" xmlns="http://www.w3.org/2000/svg">
<path d="M29.6454 34.7427H27.3889V13.6162H29.6454V34.7427Z" fill="#F9FAFB"/>
<path d="M23.5271 17.4268H25.7698V34.7292H23.5271V17.4268Z" fill="#F9FAFB"/>
<path d="M25.1132 15.4347C24.2074 15.4104 23.9941 14.7149 23.6798 13.9751C23.5945 14.2193 23.5422 14.3607 23.4956 14.5039C22.6731 17.0306 21.1187 18.886 18.5706 19.7995C16.0279 20.7113 13.4093 19.8445 11.8812 17.6121C11.6828 17.3221 11.485 17.031 11.3045 16.7298C11.2139 16.5786 11.163 16.4034 11.094 16.239L11.2571 16.1113C11.4377 16.3333 11.6484 16.537 11.7932 16.7802C12.8801 18.6052 14.7325 19.1978 16.8274 18.6285C19.1087 18.0087 20.576 16.4195 21.5072 14.275C21.1751 14.5198 20.8466 14.77 20.5099 15.0085C19.7158 15.5709 19.4309 15.548 18.733 14.8863C18.6509 14.8078 18.555 14.7426 18.4276 14.641C18.5305 14.5515 18.6082 14.4722 18.6962 14.4093C19.909 13.5516 20.9177 12.5032 21.638 11.1989C21.8311 10.8495 22.0649 10.7053 22.4071 10.9115C22.7848 11.1391 23.2748 11.3409 23.4664 11.6905C24.0473 12.7503 24.5111 13.8745 25.0109 14.9782C25.074 15.1175 25.0805 15.2819 25.1132 15.4347Z" fill="#F9FAFB"/>
<path d="M12.1968 20.6104H14.4484V34.745H12.1968V20.6104Z" fill="#F9FAFB"/>
<path d="M19.7222 20.6094H21.9698V34.7261H19.7222V20.6094Z" fill="#F9FAFB"/>
<path d="M15.9783 24.3906H18.2328V34.7377H15.9783V24.3906Z" fill="#F9FAFB"/>
<path d="M33.3402 34.7464H31.0986V24.4092H33.3402V34.7464Z" fill="#F9FAFB"/>
</svg>
